<svg version="1.1" id="Layer_1" xmlns="http://www.w3.org/2000/svg" xmlns:xlink="http://www.w3.org/1999/xlink" x="0px" y="0px"
	 width="100%" viewBox="0 0 1024 1024" enable-background="new 0 0 1024 1024" xml:space="preserve">
<path fill="#000000" opacity="1.000000" stroke="none" 
	d="
M156.446625,789.436523 
	C174.639847,771.113098 192.574554,753.026184 210.525070,734.954956 
	C251.125504,694.081543 292.099518,653.570862 332.222076,612.233704 
	C363.889618,579.607483 396.674225,548.100342 428.160370,515.295410 
	C435.624512,507.518646 443.612091,500.171387 451.172821,492.437775 
	C462.110382,481.249939 472.957703,469.972900 483.972931,458.862244 
	C506.934906,435.701355 529.999207,412.641968 552.988342,389.507904 
	C572.219238,370.155884 591.084595,350.427673 610.695251,331.469513 
	C631.159607,311.686005 651.411011,291.687225 671.173096,271.225220 
	C690.844666,250.856979 711.034363,231.013992 730.906494,210.852417 
	C757.686096,183.682571 784.867126,156.907944 811.926941,130.015030 
	C818.713379,123.270454 831.967773,122.598854 841.814209,128.069000 
	C858.568726,137.376968 871.067566,150.883804 880.556885,167.298477 
	C886.016357,176.742279 884.531372,185.846710 876.978699,193.690811 
	C851.684021,219.961685 826.566406,246.404236 801.137390,272.544006 
	C787.781433,286.273254 773.579590,299.186188 760.364563,313.044403 
	C741.156250,333.187683 720.834961,352.228790 701.769470,372.485107 
	C686.588074,388.614716 670.408813,403.727081 655.125122,419.738861 
	C615.675537,461.067841 574.596130,500.782288 534.451416,541.422607 
	C506.480865,569.738464 478.492157,598.041077 450.876007,626.700684 
	C429.523712,648.859802 407.603455,670.449646 386.134430,692.480530 
	C375.213531,703.687134 363.978607,714.584351 353.191223,725.928467 
	C337.163422,742.783386 321.105713,759.636658 304.435059,775.847168 
	C278.653351,800.917175 253.706451,826.813416 228.081879,852.034607 
	C224.649841,855.412720 221.377090,858.979431 218.287704,862.673828 
	C208.725143,874.108765 198.270355,871.791870 188.151749,865.147827 
	C169.613937,852.975830 156.346588,835.691589 143.450516,818.131531 
	C139.792648,813.150818 140.996140,805.081177 145.371490,800.739685 
	C149.032684,797.106812 152.591248,793.370544 156.446625,789.436523 
M325.821014,732.320190 
	C333.181763,723.079285 342.166992,715.384460 350.401825,707.001465 
	C382.601929,674.222107 415.272369,641.908203 447.277679,608.929321 
	C478.568420,576.686646 510.352448,544.923218 541.843567,512.874390 
	C570.087952,484.129852 599.290588,456.337524 626.874756,426.933868 
	C637.925110,415.154572 649.452148,403.819580 660.877625,392.397797 
	C662.733643,390.542358 662.961670,389.133026 661.754272,386.835052 
	C659.562683,382.664185 656.599487,379.103699 653.644592,375.518188 
	C644.822815,364.813721 635.030884,355.167145 623.462952,347.377289 
	C619.884216,344.967377 617.391968,344.861725 614.175537,348.299500 
	C597.564514,366.053650 579.828735,382.707733 563.141113,400.406525 
	C548.994629,415.410248 534.143005,429.749084 519.598267,444.377136 
	C475.687164,488.540070 431.774261,532.701233 387.860535,576.861572 
	C369.087982,595.739502 350.268677,614.571289 331.551636,633.504089 
	C318.711517,646.492249 306.071228,659.677979 293.229919,672.664917 
	C282.218323,683.801392 271.035065,694.767944 259.966797,705.848694 
	C258.726715,707.090210 256.964783,708.029541 256.772430,710.486877 
	C265.439087,715.351440 272.924164,721.847839 279.893036,729.064148 
	C286.604828,736.014099 293.308655,742.931458 298.751648,750.956116 
	C300.142487,753.006714 301.562958,753.768372 304.126495,752.353455 
	C306.196777,751.210693 308.103088,750.032471 309.761993,748.359985 
	C314.924774,743.155029 320.132080,737.994263 325.821014,732.320190 
M653.418335,311.036926 
	C651.716858,313.053650 652.382751,316.506226 648.871033,317.315674 
	C650.942566,319.198456 652.482117,320.724518 654.150391,322.093689 
	C666.543152,332.264587 677.396545,343.936432 687.332947,356.457947 
	C691.254333,361.399445 691.383484,361.632385 695.858582,357.126404 
	C712.869263,339.998383 729.923584,322.913239 746.854492,305.706757 
	C765.973145,286.276825 784.848022,266.605255 804.099915,247.309143 
	C810.809204,240.584488 816.281982,232.722366 823.453369,226.506516 
	C830.386475,220.497223 836.923645,214.130814 843.089233,207.357224 
	C850.345032,199.385971 857.232788,191.033737 865.717407,184.292725 
	C869.604614,181.204300 869.987610,177.347351 867.817261,173.659027 
	C859.495422,159.517227 848.670776,147.753677 833.720886,140.383102 
	C827.674072,137.401962 823.543762,138.262878 818.881653,142.943222 
	C792.443665,169.484695 766.097412,196.118011 739.574036,222.573853 
	C720.127808,241.970612 701.169495,261.840942 681.894043,281.397919 
	C672.438538,290.991486 664.082825,301.628174 653.418335,311.036926 
M264.049377,768.428589 
	C255.429489,757.517151 245.341904,748.197449 233.768585,740.485168 
	C230.596924,738.371704 227.697784,737.204895 224.806686,741.162659 
	C215.134018,754.403931 202.340347,764.725952 191.313446,776.702271 
	C186.519516,781.908875 181.265640,786.765869 176.968384,793.043274 
	C194.282990,805.228638 208.898575,819.535278 220.822922,836.675964 
	C221.923615,835.990234 222.720413,835.674194 223.279984,835.119019 
	C239.334915,819.188782 255.372864,803.241394 271.389282,787.272400 
	C272.821625,785.844360 272.868988,784.145874 272.290497,782.190552 
	C270.788544,777.113953 267.855042,772.936035 264.049377,768.428589 
M171.127792,807.414978 
	C169.210968,806.425171 167.387894,805.123352 165.357010,804.513184 
	C161.582306,803.379028 159.006912,805.961609 156.930847,808.413025 
	C155.317230,810.318359 157.650757,811.171204 159.006592,812.000732 
	C176.999023,823.009705 191.841263,837.219299 202.992340,855.197754 
	C203.580994,856.146790 204.175018,857.274658 205.636871,857.087219 
	C211.277740,851.844482 211.297516,846.347900 205.236969,838.799438 
	C195.617065,826.817810 184.694275,816.189270 171.127792,807.414978 
M656.304138,343.207520 
	C651.491089,338.875916 646.932312,334.216217 641.172791,331.078400 
	C636.078430,328.302979 633.580933,329.056549 630.646179,334.285889 
	C647.508911,347.822021 664.207703,361.614136 674.695435,381.251251 
	C680.573364,376.337738 681.328613,371.812439 677.106689,366.260406 
	C670.970215,358.190552 664.291687,350.569946 656.304138,343.207520 
M257.191223,740.306030 
	C267.703033,750.386597 278.243347,760.442566 285.094666,773.645081 
	C290.100342,769.713135 290.196259,768.931824 288.975708,764.030151 
	C287.010956,756.140076 281.117218,750.951843 276.033569,745.396423 
	C268.311493,736.957703 260.472687,728.444763 249.334351,724.150696 
	C245.546677,722.690430 242.587128,722.828674 240.703918,727.071960 
	C246.105698,731.348999 251.416260,735.553833 257.191223,740.306030 
z"/>
<path fill="#000000" opacity="1.000000" stroke="none" 
	d="
M377.076416,641.754700 
	C373.740845,637.112305 369.646027,633.701294 365.675171,630.162170 
	C358.453522,623.725830 358.374756,618.892517 365.274719,612.363220 
	C368.897736,608.934875 372.420349,605.400452 376.039459,601.967896 
	C380.664917,597.580872 383.918549,597.375366 388.584442,601.792542 
	C395.343933,608.191833 401.842133,614.867676 408.428528,621.448853 
	C411.002655,624.021057 410.764679,626.668213 408.654663,629.464722 
	C403.720856,636.003723 397.225800,640.981812 391.508026,646.734619 
	C389.035339,649.222473 386.135284,649.014771 383.346527,647.089417 
	C381.174500,645.590027 378.860260,644.246155 377.076416,641.754700 
z"/>
<path fill="#000000" opacity="1.000000" stroke="none" 
	d="
M493.542786,483.567322 
	C497.310883,479.772583 500.766815,476.167725 504.366516,472.712677 
	C507.596222,469.612762 512.254211,469.250916 515.592163,472.436890 
	C522.573853,479.100739 529.307922,486.034332 535.937744,493.051697 
	C538.711670,495.987732 537.098511,499.189423 534.892029,501.546844 
	C529.893921,506.886810 524.711182,512.072144 519.351135,517.048584 
	C515.955566,520.201050 511.587738,519.824341 507.783264,516.042969 
	C502.119171,510.413330 496.451202,504.800171 490.644257,499.312286 
	C485.484314,494.435822 486.354340,490.520081 493.542786,483.567322 
z"/>
<path fill="#000000" opacity="1.000000" stroke="none" 
	d="
M564.360962,448.648254 
	C560.001709,444.288330 555.921387,440.147827 551.812378,436.035950 
	C548.515930,432.737152 548.070007,428.404572 551.213135,425.024475 
	C555.848145,420.040131 560.619690,415.157227 565.632935,410.557953 
	C569.912659,406.631653 573.206970,406.629913 577.372864,410.566833 
	C584.003845,416.833344 590.529541,423.236572 596.715881,429.936493 
	C599.396729,432.839905 599.707947,436.442413 596.326416,439.679016 
	C591.766663,444.043274 587.375671,448.585266 582.954224,453.092102 
	C578.248169,457.889191 574.594360,458.096283 569.678528,453.692017 
	C567.947388,452.141022 566.308533,450.487030 564.360962,448.648254 
z"/>
<path fill="#000000" opacity="1.000000" stroke="none" 
	d="
M463.748810,573.777466 
	C451.811554,585.309631 450.114014,583.413574 440.428284,573.065735 
	C436.449310,568.814819 432.160522,564.855408 428.111908,560.667480 
	C424.570007,557.003662 424.365845,553.414185 427.813019,549.664978 
	C432.087799,545.015625 436.505127,540.467529 441.169739,536.214478 
	C446.214203,531.615173 448.761749,531.649719 453.577057,536.357239 
	C460.116852,542.750732 466.431488,549.377869 472.743011,555.999756 
	C475.369873,558.755737 474.918945,561.870361 472.635376,564.532104 
	C469.932831,567.682190 466.902863,570.551514 463.748810,573.777466 
z"/>
<path fill="#000000" opacity="1.000000" stroke="none" 
	d="
M781.785767,249.882141 
	C770.675110,256.781006 763.395630,256.650818 755.578125,249.638092 
	C746.603760,241.587570 746.269470,229.826035 755.037842,219.991943 
	C758.235352,216.405685 761.800537,213.048431 765.611267,210.125610 
	C778.572449,200.184433 795.356628,205.457932 798.607178,220.595490 
	C799.850342,226.384613 798.678101,232.297531 794.808044,237.023148 
	C791.022705,241.645172 786.862061,245.991302 781.785767,249.882141 
z"/>
</svg>