<svg version="1.1" id="Layer_1" xmlns="http://www.w3.org/2000/svg" xmlns:xlink="http://www.w3.org/1999/xlink" x="0px" y="0px"
	 width="100%" viewBox="0 0 1024 1024" enable-background="new 0 0 1024 1024" xml:space="preserve">
<path fill="#000000" opacity="1.000000" stroke="none" 
	d="
M521.408691,239.200546 
	C541.573792,233.275360 561.039307,226.410828 581.019409,221.254517 
	C582.287842,220.927155 583.809448,220.510513 584.610291,219.603195 
	C595.032532,207.794769 609.886169,205.609894 623.822205,201.665436 
	C639.624695,197.192719 655.889832,196.206009 672.259216,196.632019 
	C715.502197,197.757431 752.984680,213.031021 783.222290,243.960999 
	C815.513611,276.991730 838.018921,316.108704 848.559692,361.204865 
	C857.581055,399.801178 852.309204,436.923767 831.637817,471.257599 
	C816.270630,496.781403 795.953064,518.068970 773.758545,537.658264 
	C769.366089,541.535156 765.361633,545.660217 761.636475,550.185425 
	C746.223083,568.909363 728.286865,585.076111 709.873657,600.756348 
	C682.980835,623.657654 654.703369,644.825500 627.218323,666.949707 
	C604.786926,685.005859 580.019226,698.684814 555.468506,712.943848 
	C508.192474,740.401733 457.688171,760.690796 405.859924,777.674133 
	C394.398193,781.430054 383.331207,785.436340 373.175629,792.033386 
	C354.981964,803.852173 335.355469,807.208130 313.982086,802.473816 
	C297.081482,798.730225 280.043549,795.772949 264.202789,788.363342 
	C238.997513,776.573181 218.176804,759.019653 199.994797,738.373230 
	C169.516998,703.764465 149.741043,663.463196 137.507645,619.128540 
	C130.710312,594.494568 127.858627,569.556824 128.779877,544.134583 
	C129.832794,515.078064 139.641510,488.851654 155.301682,464.648102 
	C156.812317,462.313354 158.962708,460.323059 161.065582,458.453430 
	C168.921310,451.468903 177.767715,445.770813 186.109268,439.414459 
	C191.622696,435.213165 197.765945,433.021393 204.751282,433.691040 
	C207.650299,433.968933 209.798691,432.843353 211.902176,430.936188 
	C240.551559,404.960754 270.595428,380.650543 301.397675,357.313873 
	C334.452759,332.270355 368.063232,307.855896 403.770355,286.778229 
	C419.373566,277.567780 436.208588,269.945435 453.285797,263.313324 
	C475.627197,254.636810 498.197968,246.617416 521.408691,239.200546 
M188.292419,683.250366 
	C204.961166,711.669617 225.126221,737.161194 251.833984,756.808960 
	C265.014740,766.505432 279.147552,774.794006 296.057861,776.285339 
	C314.175293,777.883118 331.472961,773.145203 340.544403,754.133606 
	C347.017700,740.567139 349.020966,726.205994 349.606903,711.528748 
	C350.609558,686.413391 345.468536,662.175781 337.126862,638.744995 
	C324.512451,603.312622 306.463806,570.765320 281.399658,542.525574 
	C265.651611,524.782166 248.382248,508.583649 226.988113,497.625671 
	C215.368805,491.674347 203.021683,487.777191 189.950424,491.667938 
	C172.038406,496.999603 161.422836,509.937378 155.661804,527.194397 
	C147.993988,550.163086 149.486420,573.503906 153.984879,596.692200 
	C159.938171,627.379761 172.336411,655.664246 188.292419,683.250366 
M520.691406,564.143188 
	C552.177124,547.861084 583.955200,532.145874 615.145630,515.289856 
	C626.023682,509.411194 626.236450,509.301483 623.005676,497.172668 
	C615.151855,467.687653 600.397583,441.504700 584.071533,416.089264 
	C580.687073,410.820496 578.906555,410.610260 573.518799,413.795990 
	C560.052368,421.758636 546.636230,429.814545 533.017029,437.509094 
	C509.832336,450.607880 486.330017,463.152435 463.297546,476.509918 
	C445.020203,487.109680 427.270935,498.617859 409.233795,509.635254 
	C403.454071,513.165649 403.016052,513.898621 407.034576,519.628845 
	C423.498871,543.106079 435.837677,568.625610 445.216797,595.654785 
	C447.196594,601.360168 448.066711,601.731750 453.551758,598.928467 
	C475.776672,587.569702 497.546875,575.331604 520.691406,564.143188 
M448.038269,367.597504 
	C444.682281,369.770264 441.340271,371.964996 437.968140,374.112396 
	C404.796844,395.235931 372.587158,417.757111 340.879669,441.002960 
	C334.621918,445.590729 334.781342,446.251526 340.804474,451.050049 
	C357.748138,464.548859 374.534637,478.237366 388.562408,494.902557 
	C391.243927,498.088226 393.730988,498.148773 397.209442,496.088196 
	C427.865021,477.928253 458.503510,459.735779 489.337769,441.882263 
	C514.697510,427.198547 539.847961,412.117676 566.083862,399.006287 
	C569.911133,397.093597 569.439392,395.103760 567.415283,392.407562 
	C550.828918,370.313812 531.581665,350.786255 510.391541,333.113556 
	C507.706696,330.874390 505.583191,330.824799 502.422546,332.613586 
	C483.836151,343.132446 466.509155,355.581665 448.038269,367.597504 
M478.774841,605.388184 
	C471.787262,608.912231 464.924957,612.721497 457.770050,615.864624 
	C452.596802,618.137268 451.583618,621.280823 452.919556,626.515015 
	C458.554077,648.590515 460.655792,671.021179 458.912140,693.781067 
	C458.618042,697.619934 460.391907,698.684937 464.295471,696.945801 
	C470.834412,694.032593 477.376953,691.110168 483.786804,687.927490 
	C531.058716,664.455566 577.820679,639.993835 624.508667,615.387329 
	C627.754089,613.676819 628.949097,611.068115 629.522278,607.876587 
	C631.849121,594.921814 632.890076,581.823853 632.941528,568.694336 
	C632.987793,556.902344 632.965942,545.081787 630.837036,533.378723 
	C630.132507,529.505737 628.420959,529.080505 625.342834,530.593628 
	C621.010071,532.723450 616.636353,534.772766 612.339844,536.973083 
	C568.036926,559.661194 523.746155,582.372803 478.774841,605.388184 
M631.994629,382.545013 
	C621.609070,388.075806 611.223450,393.606567 601.191406,398.949066 
	C601.020874,400.929596 601.794189,401.841766 602.388306,402.836945 
	C618.637451,430.054932 632.940491,458.160431 641.819580,488.767914 
	C643.855042,495.784302 645.635620,496.279968 651.385010,491.760590 
	C668.788025,478.080841 685.996399,464.146790 703.600403,450.731476 
	C723.605835,435.486053 742.974976,419.487640 762.105591,403.177124 
	C765.289062,400.462921 766.074890,397.810059 765.008728,393.623901 
	C759.300720,371.211304 749.194641,350.970642 735.835999,332.216309 
	C734.042297,329.698181 732.490051,329.180878 729.678589,330.684448 
	C697.386475,347.954071 664.642273,364.372620 631.994629,382.545013 
M686.248474,276.258667 
	C679.119141,269.720306 671.421997,263.921570 663.493469,258.387024 
	C660.833191,256.529968 658.677124,256.318390 655.742004,257.673920 
	C638.983704,265.413300 622.086304,272.851990 605.342773,280.622681 
	C580.897095,291.967987 556.321777,303.043762 532.250854,315.182037 
	C527.396545,317.629883 527.166687,319.249054 531.358093,322.602112 
	C552.559265,339.562439 570.664673,359.447479 586.685242,381.271942 
	C589.408325,384.981567 591.867737,385.571930 595.855164,383.154572 
	C604.104858,378.153381 612.545898,373.457001 621.014343,368.829376 
	C651.529480,352.154205 682.630493,336.567535 712.892029,319.419983 
	C721.508667,314.537384 721.552185,314.073242 714.986511,306.374115 
	C706.119080,295.975891 696.540894,286.258698 686.248474,276.258667 
M411.075378,307.640045 
	C360.013916,342.213318 310.087677,378.263824 264.065613,419.018158 
	C265.506897,421.871765 267.154907,421.465729 268.587341,421.645752 
	C283.356628,423.502106 297.762787,426.723083 310.975525,433.861053 
	C314.555511,435.795044 317.224457,435.518982 320.502747,433.196320 
	C340.470581,419.049408 360.525604,405.024353 380.630829,391.072845 
	C414.138519,367.820984 449.139954,346.794098 482.237671,322.927917 
	C487.100311,319.421509 487.163757,317.563507 482.035645,314.788208 
	C473.241272,310.028809 464.240265,305.585236 454.562256,303.001740 
	C439.825043,299.067657 424.914917,295.217682 411.075378,307.640045 
M735.802551,521.308472 
	C745.814575,511.795227 755.545532,501.967987 766.680542,493.710419 
	C768.396118,492.438202 768.987976,490.526459 769.540894,488.583710 
	C771.050903,483.277863 771.234741,477.779816 772.022461,472.367279 
	C774.315369,456.611725 774.357544,440.903564 771.867188,425.187805 
	C771.595520,423.473083 772.082031,421.253418 769.805298,420.515625 
	C767.480652,419.762329 766.167358,421.624847 764.675537,422.895294 
	C756.312866,430.017456 748.123169,437.354797 739.561829,444.229248 
	C711.269592,466.946869 683.037720,489.752625 653.522339,510.886475 
	C649.656738,513.654358 648.611511,516.728760 649.723877,521.093018 
	C650.335022,523.490356 650.550781,525.992737 650.884583,528.455933 
	C653.212708,545.636414 654.280823,562.848022 652.642334,580.178833 
	C652.235229,584.484985 651.431030,588.961792 653.427246,594.091125 
	C682.614014,571.386353 709.369202,547.064331 735.802551,521.308472 
M513.339844,304.604034 
	C516.394836,303.280762 519.510193,302.080566 522.495361,300.615051 
	C551.793518,286.231964 581.685242,273.136414 611.363953,259.579071 
	C618.180603,256.465210 625.037598,253.439270 631.844116,250.303574 
	C633.171448,249.692093 634.706726,249.008759 634.701660,247.179352 
	C634.696533,245.330643 633.215698,244.711655 631.788452,244.189194 
	C628.977783,243.160355 626.092651,242.318466 623.330750,241.175797 
	C611.859009,236.429596 600.827332,236.358063 588.537109,240.011459 
	C546.404602,252.535919 504.359253,265.205841 463.495697,281.506073 
	C462.375732,281.952820 460.902496,282.186890 460.552826,284.297821 
	C478.210968,287.057190 493.550568,295.260193 508.360840,304.663422 
	C509.804382,305.579895 511.190063,305.406158 513.339844,304.604034 
M814.314392,359.803192 
	C820.513977,355.895233 820.808350,350.884369 818.805603,344.094269 
	C814.560730,329.702545 807.478088,316.766327 800.057617,303.964813 
	C797.167542,298.979218 793.336243,294.539215 789.664185,289.479309 
	C787.543823,290.873871 785.744385,291.996704 784.007812,293.209625 
	C774.316833,299.978455 764.691162,306.842102 754.942871,313.526978 
	C748.298828,318.083008 748.110229,318.056580 752.643494,324.528351 
	C764.562500,341.544281 773.912964,359.833252 780.488037,379.550537 
	C781.136353,381.494537 781.352905,383.876801 784.167664,385.064301 
	C794.467712,377.519318 804.366821,369.190735 814.314392,359.803192 
M708.958862,273.530151 
	C717.184265,281.772278 725.625366,289.816223 733.067261,298.794891 
	C735.303162,301.492523 737.189575,301.883301 740.175110,299.799408 
	C748.491821,293.994476 757.068481,288.562927 765.413696,282.797455 
	C769.887451,279.706635 774.096008,276.232025 778.867981,272.592163 
	C765.344788,258.011627 751.887390,244.302429 735.360535,234.000900 
	C734.152710,233.248047 732.790283,233.343567 731.472534,233.525360 
	C724.236328,234.523636 716.942993,235.244247 709.787354,236.658203 
	C698.916809,238.806244 688.532349,242.615891 677.404602,246.784531 
	C688.513123,255.561508 699.293396,263.363281 708.958862,273.530151 
M473.390594,727.783569 
	C518.233154,708.363403 561.195740,685.238586 603.628235,661.132629 
	C611.735352,656.526917 614.551636,647.372498 617.397766,638.853088 
	C617.447937,638.702881 617.000427,638.386353 616.707764,638.061646 
	C616.287598,638.107361 615.739441,638.025269 615.339294,638.230896 
	C603.640930,644.245850 591.964355,650.303162 580.269958,656.325806 
	C541.186096,676.454102 502.619232,697.631470 462.518738,715.699768 
	C454.886932,719.138428 452.081909,724.009399 451.492859,731.465149 
	C451.188629,735.316223 452.385315,736.460571 456.105927,735.020752 
	C461.692200,732.859070 467.164246,730.402344 473.390594,727.783569 
M390.687866,531.780640 
	C389.595886,530.310486 388.467804,528.865601 387.420929,527.364014 
	C386.054016,525.403381 384.388336,524.869568 382.278137,526.125183 
	C376.985229,529.274658 371.606354,532.292236 366.442719,535.641357 
	C363.724091,537.404602 362.179718,539.874634 364.568390,543.212280 
	C371.085510,552.318604 375.912323,562.412781 381.171204,572.236206 
	C388.402679,585.744324 394.606750,599.729309 399.551483,614.264343 
	C401.590912,620.259094 402.512360,620.507751 408.202606,617.846313 
	C412.576508,615.800598 416.965485,613.780762 421.274597,611.604492 
	C427.516876,608.451782 428.106201,607.638367 425.933868,601.113281 
	C417.734802,576.485291 406.214966,553.502136 390.687866,531.780640 
M825.926514,377.241425 
	C825.246582,377.702728 824.484985,378.078491 823.898987,378.638123 
	C814.475403,387.637909 804.116455,395.470978 793.148926,402.428070 
	C789.674805,404.631775 788.832886,406.860168 789.640198,410.577423 
	C791.156189,417.557739 792.091309,424.628632 792.362732,431.787628 
	C792.784790,442.920166 792.749878,454.028259 791.371826,465.107635 
	C791.197266,466.511230 790.596069,468.297485 792.139526,469.265564 
	C793.983826,470.422302 795.274963,468.849152 796.450562,467.766724 
	C799.756348,464.722870 803.031494,461.640045 806.202576,458.456909 
	C811.017578,453.623627 816.441284,448.962585 819.263733,442.822784 
	C827.632019,424.619324 830.093567,405.245728 828.367615,385.365417 
	C828.135193,382.688477 828.517456,379.661133 825.926514,377.241425 
M435.889374,707.341553 
	C440.289398,703.812195 438.570557,698.672791 439.042084,694.264832 
	C441.289673,673.254395 438.563782,652.546997 434.443939,631.980896 
	C433.738586,628.459900 431.620544,627.266174 428.225220,629.214233 
	C423.324127,632.026123 418.547211,635.132568 413.414825,637.440796 
	C408.455963,639.671021 407.498749,642.956543 408.560272,647.844788 
	C413.047913,668.510193 415.910614,689.310486 413.449982,710.541748 
	C412.947357,714.878601 414.672516,716.220093 418.718201,714.690796 
	C424.305481,712.578918 429.738770,710.059570 435.889374,707.341553 
M369.518646,505.027893 
	C356.828918,489.686798 342.705536,475.902283 326.199554,464.633789 
	C314.417938,456.590576 314.481415,456.497528 302.785767,465.497620 
	C297.379974,469.657501 297.224945,470.558807 302.526184,474.683624 
	C318.904663,487.427612 333.430328,502.002686 346.098999,518.414307 
	C348.200226,521.136292 350.433899,521.748840 353.423859,520.465942 
	C358.625183,518.234131 363.688568,515.781677 368.528992,512.785278 
	C371.957764,510.662720 372.405884,508.577820 369.518646,505.027893 
M339.419312,595.115784 
	C343.766510,602.815247 346.800873,611.106262 350.232697,619.215637 
	C351.770081,622.848450 353.963165,623.923218 358.066376,623.144958 
	C363.602386,622.094849 368.424225,619.754822 373.299133,617.215515 
	C377.079315,615.246338 378.045654,612.727417 376.519775,608.682739 
	C372.343964,597.613708 367.277222,586.980408 361.687866,576.570068 
	C359.958954,573.349976 357.513062,572.353699 354.247284,573.647156 
	C350.850586,574.992554 347.475769,576.443970 344.237946,578.130432 
	C333.604858,583.668884 333.630402,583.717957 339.419312,595.115784 
M297.045044,516.445312 
	C299.952209,514.841431 302.799835,513.115540 305.780121,511.661438 
	C310.574005,509.322510 310.996979,507.872253 307.466736,503.901886 
	C301.033630,496.666809 293.979004,490.108612 286.095398,484.449127 
	C274.577484,476.180603 269.714233,476.810333 260.722595,487.917480 
	C259.991302,488.820831 259.319061,489.782562 258.711182,490.773468 
	C255.234634,496.440430 255.376190,497.534454 260.832458,501.287445 
	C267.568024,505.920349 273.926483,510.988770 279.896057,516.574951 
	C287.912628,524.076721 287.951843,524.034790 297.045044,516.445312 
M339.216003,562.549194 
	C341.680420,561.553711 344.102661,560.430908 346.620789,559.597717 
	C349.265930,558.722534 350.234222,557.396973 348.585999,554.844299 
	C341.721313,544.212524 334.523651,533.825073 326.262238,524.210083 
	C324.419647,522.065613 322.264374,521.401733 319.583801,522.452454 
	C313.335480,524.901611 307.623505,528.264893 302.411865,532.478027 
	C300.031281,534.402527 299.932098,536.454956 301.822693,538.937378 
	C308.976593,548.330688 316.050415,557.785583 323.085327,567.268494 
	C324.818329,569.604553 326.590118,569.895203 329.027710,568.343872 
	C332.111877,566.381104 335.342987,564.649170 339.216003,562.549194 
M375.709900,634.334106 
	C371.193665,636.665894 366.204285,637.302917 361.317444,638.241943 
	C358.412842,638.800110 357.088562,640.314758 357.991333,643.117188 
	C361.410187,653.730286 363.616852,664.634583 365.982941,675.502441 
	C366.618378,678.420959 368.482483,679.646973 371.366760,679.617310 
	C377.473816,679.554382 383.132751,677.851746 388.622986,675.257385 
	C392.073578,673.626770 393.052856,670.987427 392.580933,667.516235 
	C391.237213,657.632080 389.197754,647.889404 386.350525,638.330017 
	C384.293396,631.423523 383.064667,630.943115 375.709900,634.334106 
M368.351501,697.953979 
	C367.602570,708.368408 366.825897,718.780945 366.132721,729.199036 
	C366.020233,730.889587 367.190308,731.950439 368.653992,732.588928 
	C376.260254,735.906982 383.616394,734.664856 390.782684,731.204285 
	C392.375458,730.435181 393.052399,728.706909 393.384827,727.090332 
	C395.437439,717.108704 396.105377,707.000244 395.514587,696.843201 
	C395.278870,692.789795 392.860474,691.424866 388.901123,692.685791 
	C384.460724,694.099854 379.958679,695.308167 375.237305,695.319519 
	C372.882141,695.325195 370.544891,695.395691 368.351501,697.953979 
M253.135071,464.352783 
	C246.395981,460.589935 239.075638,458.384369 231.700699,456.308685 
	C221.145798,453.338013 217.713135,455.041168 213.503235,465.318573 
	C212.667282,467.359314 212.752945,469.616455 212.076447,471.592133 
	C210.322311,476.715149 212.948959,478.456970 217.220062,479.698547 
	C224.085754,481.694397 231.018951,483.655914 237.292038,487.166931 
	C241.044022,489.266937 243.126556,488.200867 244.719620,484.632935 
	C246.926132,479.691040 250.082138,475.492828 254.369278,472.100281 
	C258.861206,468.545746 258.761292,468.112061 253.135071,464.352783 
M382.399445,760.896240 
	C383.573822,758.327148 384.785889,755.774475 385.913116,753.184875 
	C387.363220,749.853455 386.111420,748.622925 382.618835,748.702209 
	C377.495819,748.818542 372.261566,749.036194 367.413788,747.119080 
	C363.410828,745.536011 361.257080,746.485962 359.768250,750.512268 
	C356.687561,758.843384 352.321259,766.506714 346.287598,773.065002 
	C343.660889,775.920166 344.736786,777.675964 347.250580,779.511841 
	C352.780579,783.550415 359.676941,783.696472 365.980804,779.612732 
	C372.972473,775.083313 378.256927,768.962524 382.399445,760.896240 
M634.138428,226.867020 
	C641.569824,229.230255 649.034546,231.496170 656.411438,234.018890 
	C658.493408,234.730896 660.181580,234.527725 662.138855,233.775284 
	C673.923096,229.244965 685.838684,225.154083 698.456970,223.559967 
	C700.049255,223.358795 701.741882,223.130066 702.713562,221.255920 
	C700.254456,219.231125 697.226624,218.977982 694.366455,218.408035 
	C682.077026,215.959122 669.901672,217.681320 657.755859,219.639648 
	C650.385193,220.828064 643.023254,222.093170 635.705872,223.564529 
	C634.638062,223.779251 630.799072,223.285080 634.138428,226.867020 
M652.626221,623.070984 
	C687.871948,596.807068 740.452576,548.756042 742.336304,540.917480 
	C739.962952,540.918518 738.903320,542.860046 737.533020,544.087219 
	C724.260742,555.972778 711.267456,568.179260 697.773376,579.805298 
	C682.513306,592.952820 666.994751,605.822327 650.094116,616.886719 
	C646.444824,619.275879 645.047241,622.579041 645.694397,627.046387 
	C648.698303,626.714111 650.019653,624.475098 652.626221,623.070984 
M245.830399,439.329834 
	C243.240250,439.582550 240.276276,438.737335 238.060898,441.945618 
	C240.259888,442.583527 241.978012,443.078400 243.694077,443.580322 
	C253.116287,446.336060 262.299591,449.753326 270.878204,454.531464 
	C281.475159,460.433807 281.409698,460.581818 290.739319,452.819366 
	C292.219330,451.587952 294.264526,450.577881 293.594971,448.058563 
	C292.961487,445.675140 290.783081,445.437225 288.899017,444.946777 
	C275.082520,441.350250 261.253235,437.805542 245.830399,439.329834 
M201.008621,457.740845 
	C201.611710,455.798309 202.556061,453.740448 199.244507,453.344757 
	C191.737793,452.447815 181.176453,460.543365 180.212982,467.905365 
	C178.277344,482.695862 184.114792,481.546722 193.250854,479.044098 
	C196.256363,478.220886 197.765289,476.710083 197.712250,473.484161 
	C197.626755,468.284027 199.024536,463.338318 201.008621,457.740845 
M421.858795,730.470276 
	C419.167969,731.334473 416.477356,732.199280 413.786255,733.062561 
	C412.512787,733.471069 411.010803,733.788696 410.503204,735.112976 
	C408.602783,740.071411 406.611938,745.046997 406.200806,750.398499 
	C405.993103,753.101807 407.612396,753.925110 410.108459,752.993286 
	C413.689453,751.656555 417.181702,749.962952 420.867767,749.054138 
	C426.666138,747.624756 429.582550,743.802246 430.632751,738.362732 
	C431.229248,735.273132 434.531067,731.800598 431.547699,729.101257 
	C428.969696,726.768677 425.659485,729.841675 421.858795,730.470276 
M167.048462,487.274353 
	C168.050781,485.371979 167.885941,483.370178 167.201324,481.487732 
	C166.635223,479.931244 165.539215,478.998016 163.742493,480.235748 
	C161.219635,481.973755 158.378998,490.305969 159.386826,493.610474 
	C162.609146,492.683136 164.430450,490.037018 167.048462,487.274353 
M334.242798,787.128601 
	C333.886658,786.789917 333.526855,786.455017 333.174988,786.111877 
	C331.087799,784.077209 328.966675,784.975586 326.853180,786.047729 
	C325.700378,786.632568 325.034393,787.580200 325.489258,788.851379 
	C326.396423,791.386658 328.776367,790.396423 330.565308,790.805664 
	C331.362946,790.988037 332.171417,791.178345 332.983734,791.231812 
	C336.616882,791.471008 336.691956,790.005615 334.242798,787.128601 
M786.335388,496.747894 
	C785.484741,497.784119 783.646240,498.502686 785.338745,500.590729 
	C789.432983,498.657379 791.294739,494.736023 793.759827,491.406708 
	C791.463562,493.044281 789.167358,494.681824 786.335388,496.747894 
z"/>
<path fill="#000000" opacity="1.000000" stroke="none" 
	d="
M288.890533,611.213013 
	C304.282898,638.053833 311.864014,666.547852 309.135864,697.092896 
	C307.562378,714.710266 300.258362,726.764526 282.982391,729.689819 
	C271.873352,731.570862 262.211975,726.681580 253.082047,720.875488 
	C234.594620,709.118469 221.891769,692.165588 210.587036,673.882935 
	C197.342468,652.463013 189.404877,629.114319 186.087448,604.331787 
	C184.571686,593.008362 184.946808,581.402710 188.710037,570.261108 
	C192.911957,557.820740 201.103470,549.941956 214.332550,548.018616 
	C220.299515,547.151062 225.817703,549.284912 231.227890,551.480957 
	C244.078674,556.697266 253.673950,566.159607 263.045074,575.927612 
	C273.145935,586.456177 280.606018,598.908264 288.890533,611.213013 
M221.271332,663.251831 
	C223.374619,667.236816 225.912262,670.937317 228.806122,674.377258 
	C236.543503,683.574646 244.538696,692.522278 255.845856,697.508484 
	C259.031799,698.913452 262.429138,699.763855 266.033783,698.770142 
	C267.551666,698.351685 269.106018,697.992920 269.438629,696.309082 
	C269.824615,694.355225 268.065765,693.985718 266.747253,693.295166 
	C264.546173,692.142395 262.303802,691.018799 260.265503,689.612366 
	C243.377075,677.958679 232.402954,661.571777 224.657990,643.080261 
	C217.249603,625.392273 214.001114,607.080994 221.635727,588.379578 
	C222.760452,585.624451 221.310226,584.329590 218.999069,583.504944 
	C213.981247,581.714478 209.310135,584.231628 206.976501,590.354614 
	C203.760284,598.793213 203.949722,607.577209 204.723694,616.416016 
	C206.193954,633.206848 212.613159,648.231995 221.271332,663.251831 
z"/>
</svg>