<svg version="1.1" id="Layer_1" xmlns="http://www.w3.org/2000/svg" xmlns:xlink="http://www.w3.org/1999/xlink" x="0px" y="0px"
	 width="100%" viewBox="0 0 1024 1024" enable-background="new 0 0 1024 1024" xml:space="preserve">
<path fill="#000000" opacity="1.000000" stroke="none" 
	d="
M382.454163,607.479492 
	C414.402283,560.702271 446.412506,514.405823 479.064972,468.557800 
	C498.479187,441.297913 517.279541,413.620453 536.103210,385.952942 
	C554.269348,359.251862 572.840332,332.824463 591.387329,306.384766 
	C605.439209,286.353119 619.778809,266.523468 633.881165,246.526886 
	C636.765259,242.437271 638.803345,238.038620 638.784668,232.666519 
	C638.746948,221.804062 646.125854,215.849304 654.728821,211.617416 
	C662.046936,208.017609 669.937500,205.719254 678.395142,207.415695 
	C681.384094,208.015228 683.489136,206.188400 685.285767,204.138779 
	C700.343140,186.960663 714.894287,169.439117 725.745178,149.128433 
	C734.612549,132.530441 743.694763,116.032776 754.270203,100.426865 
	C759.754456,92.333931 766.553406,89.555458 775.851196,92.715553 
	C795.397461,99.358879 810.853271,111.754066 822.812439,128.401047 
	C827.324768,134.682175 826.228394,142.601913 820.101196,148.909668 
	C808.721863,160.624374 798.034058,172.959625 786.958740,184.944580 
	C769.972717,203.325577 754.385315,222.807327 740.793335,243.859192 
	C738.831726,246.897507 739.013062,249.745834 740.316711,252.848587 
	C743.530579,260.498016 744.690430,268.470093 744.430176,276.766937 
	C744.115417,286.800751 739.572449,294.202484 730.156555,297.429443 
	C724.932312,299.219879 721.324036,302.418488 718.059265,306.538208 
	C695.711792,334.738037 673.105347,362.735168 650.976624,391.105164 
	C618.196167,433.131195 585.492554,475.222015 553.223022,517.640320 
	C523.578613,556.607788 494.573212,596.061096 465.243683,635.268494 
	C450.079773,655.539429 434.850311,675.761475 419.589783,695.959717 
	C415.740173,701.054932 412.643890,706.542236 410.335632,712.466553 
	C406.754639,721.657532 400.205475,728.760681 394.247528,736.378418 
	C378.891785,756.011841 369.083832,778.656982 360.255157,801.721130 
	C352.906799,820.918091 348.063202,840.770508 346.527130,861.311768 
	C345.681183,872.623718 346.348511,883.934631 347.728455,895.198181 
	C348.516083,901.627136 349.483337,908.023315 349.394165,914.553284 
	C349.201385,928.675720 338.114990,937.557068 324.050781,934.922546 
	C288.926697,928.343201 257.189301,914.198669 228.130905,893.441711 
	C204.114456,876.286255 181.798325,857.492676 164.895233,833.017334 
	C159.491898,825.193359 155.016434,816.811951 153.209564,807.273743 
	C150.779968,794.448303 156.826767,784.950378 169.627548,781.792786 
	C177.861343,779.761780 186.082764,777.626953 194.399490,775.996460 
	C214.528870,772.050110 232.519699,763.422852 249.428101,752.051453 
	C271.771973,737.024536 292.708099,720.397583 310.618958,700.164795 
	C313.065308,697.401306 315.108215,694.408203 316.896149,691.180847 
	C323.025726,680.116638 330.998077,670.330383 341.261017,663.161560 
	C347.006256,659.148376 351.086639,654.399719 354.515839,648.727112 
	C363.057953,634.596680 373.062256,621.464172 382.454163,607.479492 
M551.893494,485.438599 
	C567.751343,464.648438 583.471863,443.751740 599.499939,423.093628 
	C622.259399,393.759705 645.171448,364.543243 668.166077,335.393188 
	C679.192566,321.414917 690.517212,307.670593 701.808594,293.903717 
	C703.802856,291.472198 703.604492,289.502869 701.732117,287.283112 
	C690.346069,273.784760 678.265625,261.346527 660.410095,256.335388 
	C655.486938,254.953720 652.153564,255.530914 649.199402,259.742584 
	C639.158569,274.057587 628.849487,288.185638 618.890564,302.556763 
	C599.926514,329.922760 581.261292,357.496307 562.236084,384.819458 
	C539.686890,417.203552 517.659973,449.947235 494.712128,482.058807 
	C474.668976,510.105682 455.082306,538.480042 435.411041,566.791016 
	C415.075958,596.057312 394.187866,624.947510 375.051880,655.033875 
	C371.484070,660.643311 371.539581,661.924011 377.709717,664.901062 
	C385.931671,668.868103 393.371033,673.688354 399.473175,680.506409 
	C401.659729,682.949524 403.570099,682.670837 405.525879,680.044434 
	C409.999237,674.037170 414.678619,668.183350 419.151886,662.176025 
	C440.234741,633.863220 461.156097,605.429321 482.365234,577.211609 
	C505.282074,546.721863 528.454041,516.423767 551.893494,485.438599 
M298.341827,741.866882 
	C284.570221,752.627502 271.394318,764.164062 256.303589,773.184753 
	C246.697739,778.926880 236.736221,783.891052 226.534897,788.446228 
	C222.613159,790.197510 222.588074,791.511230 226.179138,793.822205 
	C228.556686,795.352234 231.028168,796.762146 233.556656,798.027954 
	C267.107513,814.824280 297.635223,835.527283 321.033752,865.487976 
	C321.912689,866.613342 322.602478,868.160522 324.502747,867.784302 
	C325.894012,866.653625 325.561829,865.066467 325.686157,863.604675 
	C327.412506,843.309753 331.162750,823.399353 337.666321,804.089294 
	C345.828949,779.853027 356.555450,756.786560 370.410614,735.251038 
	C372.747986,731.617981 372.529388,728.999634 369.882538,725.466858 
	C361.885773,714.793457 350.540375,710.063110 338.375549,706.564941 
	C335.610229,705.769775 333.262115,706.458679 331.219696,708.754028 
	C321.024231,720.211792 309.943420,730.801758 298.341827,741.866882 
M285.683838,901.736084 
	C297.822754,906.809631 310.092987,911.499023 323.054871,914.060120 
	C327.506348,914.939697 328.282776,913.985352 326.769257,909.766846 
	C325.527191,906.304993 323.846313,903.061768 321.746277,900.034851 
	C305.516205,876.641296 287.095917,855.658997 263.188080,839.365234 
	C237.643967,821.956299 210.172073,809.701538 180.412598,802.067566 
	C178.147476,801.486511 176.101929,801.361938 174.403305,803.122742 
	C172.488968,805.107117 173.617905,807.249939 174.529251,809.158691 
	C177.622925,815.637939 181.361740,821.718445 185.984741,827.250671 
	C197.990570,841.617371 211.543915,854.412415 226.125443,866.074951 
	C244.135925,880.480103 263.667053,892.473755 285.683838,901.736084 
M800.174438,132.303268 
	C793.878052,126.312416 787.032349,121.002754 779.726807,116.324928 
	C773.308838,112.215424 771.088501,112.679604 767.357605,119.274200 
	C762.192322,128.404236 757.426636,137.759369 752.394897,146.966187 
	C748.403442,154.269470 744.164734,161.438934 740.248352,168.781189 
	C738.611694,171.849609 736.916992,175.335861 739.679260,178.598053 
	C742.908020,182.411011 746.534058,185.849091 751.070068,188.190231 
	C753.835022,189.617279 756.004272,189.416245 758.037842,186.809265 
	C760.904480,183.134232 763.926819,179.569489 767.045288,176.104065 
	C777.627197,164.344833 787.998718,152.391983 799.228699,141.226273 
	C801.589294,138.879227 804.236023,136.282486 800.174438,132.303268 
M696.990051,254.472549 
	C704.096252,261.012085 711.292664,267.455780 717.495605,274.909668 
	C718.727112,276.389587 720.120239,278.266388 722.502380,276.661163 
	C724.451233,275.347870 724.610291,273.625305 723.905640,271.413055 
	C722.778137,267.873535 721.236450,264.552551 719.038025,261.619080 
	C708.207275,247.167099 693.994507,236.969803 677.833923,229.302460 
	C673.092102,227.052719 668.686646,228.690399 664.520508,231.021698 
	C661.416443,232.758713 661.400391,235.244202 664.562012,237.056625 
	C666.853455,238.370209 669.380615,239.373672 671.915833,240.142776 
	C681.143921,242.942276 689.483887,247.242386 696.990051,254.472549 
M707.777466,209.239853 
	C707.088196,210.175079 706.515991,211.232483 705.689514,212.024506 
	C702.028931,215.532288 702.983337,218.122772 706.997253,220.533798 
	C711.262512,223.095749 715.459839,225.796768 719.504150,228.692215 
	C722.617371,230.921021 724.753845,230.590988 726.852112,227.339645 
	C730.628662,221.487610 734.580872,215.745865 738.576050,210.039490 
	C739.990356,208.019577 739.758301,206.457733 738.132446,204.759521 
	C734.094849,200.542404 729.276428,197.276276 724.761353,193.642197 
	C722.633240,191.929291 720.837036,192.530914 719.253357,194.577988 
	C715.600220,199.300003 711.898560,203.984467 707.777466,209.239853 
M358.017090,678.507629 
	C356.193573,678.353577 354.343842,678.043274 352.630341,678.980591 
	C349.886658,680.481567 347.384888,682.596130 347.444183,685.785828 
	C347.502136,688.905151 350.867493,688.294495 352.931885,688.964600 
	C359.500641,691.096985 365.585480,694.056946 370.698975,698.806335 
	C374.602325,702.431641 378.494720,706.070679 382.476471,709.608459 
	C383.680603,710.678467 385.064026,711.961060 386.916473,710.808105 
	C388.703613,709.695801 389.889679,708.156433 389.873016,705.925110 
	C389.854706,703.470886 388.719238,701.402649 387.396820,699.485596 
	C380.306030,689.207031 370.108948,683.165222 358.017090,678.507629 
z"/>
<path fill="#000000" opacity="1.000000" stroke="none" 
	d="
M614.247437,342.021851 
	C622.235962,342.483124 628.497803,349.226837 627.866516,357.109711 
	C627.371704,363.288483 625.435608,369.195190 620.359009,373.453522 
	C614.827209,378.093597 609.196655,377.474915 604.879089,371.765137 
	C599.879883,365.153931 600.855530,351.105255 606.668884,345.200073 
	C608.666809,343.170593 611.182739,342.503357 614.247437,342.021851 
z"/>
<path fill="#000000" opacity="1.000000" stroke="none" 
	d="
M503.314789,510.661804 
	C508.776276,521.726379 505.342102,533.701355 495.431915,538.936707 
	C489.054901,542.305542 484.809692,540.776367 482.102661,534.135254 
	C476.981659,521.571777 481.021271,511.570648 492.745880,508.455109 
	C496.303955,507.509583 500.249329,506.657684 503.314789,510.661804 
z"/>
<path fill="#000000" opacity="1.000000" stroke="none" 
	d="
M445.550659,586.224792 
	C438.866394,573.474731 447.267761,563.542480 456.721222,559.335266 
	C463.607971,556.270325 468.923981,560.271301 470.426025,567.616211 
	C472.846252,579.450745 463.327393,587.270142 455.411011,589.562378 
	C451.379120,590.729858 448.215454,590.035706 445.550659,586.224792 
z"/>
<path fill="#000000" opacity="1.000000" stroke="none" 
	d="
M559.020508,412.391602 
	C560.791565,410.571503 562.291016,409.016205 563.863831,407.538971 
	C567.680176,403.954437 572.336731,403.307007 576.830933,405.275665 
	C581.067932,407.131714 582.753723,411.376801 583.283752,415.825348 
	C583.658691,418.972198 583.277405,422.119781 582.304382,425.183441 
	C580.117676,432.068542 573.922546,436.829346 568.472961,435.744690 
	C561.774109,434.411438 556.097900,426.812378 556.803650,419.813721 
	C557.049255,417.377991 557.363586,414.852509 559.020508,412.391602 
z"/>
<path fill="#000000" opacity="1.000000" stroke="none" 
	d="
M524.733154,460.398682 
	C529.357056,458.283173 533.484070,458.080994 537.104492,461.533783 
	C541.542297,465.766022 541.938293,471.104370 540.945129,476.750885 
	C540.916809,476.911774 540.825867,477.060608 540.778625,477.219391 
	C538.467957,484.986389 532.326599,490.941284 526.624084,490.942108 
	C521.949524,490.942780 516.792847,485.039337 515.282288,477.957825 
	C513.700012,470.540497 516.997742,464.223969 524.733154,460.398682 
z"/>
<path fill="#000000" opacity="1.000000" stroke="none" 
	d="
M427.954712,634.803711 
	C427.066833,635.836548 426.445740,636.622803 425.726746,637.306152 
	C422.556396,640.319031 419.347900,643.339294 414.394592,641.853699 
	C409.005157,640.237366 406.484375,636.323486 405.515594,630.977051 
	C403.839325,621.725830 411.337036,611.861023 420.658173,611.272827 
	C427.289703,610.854309 432.156189,615.316101 432.294800,621.962891 
	C432.392029,626.623291 430.734131,630.716370 427.954712,634.803711 
z"/>
</svg>