<svg version="1.1" id="Layer_1" xmlns="http://www.w3.org/2000/svg" xmlns:xlink="http://www.w3.org/1999/xlink" x="0px" y="0px"
	 width="100%" viewBox="0 0 1024 1024" enable-background="new 0 0 1024 1024" xml:space="preserve">
<path fill="#000000" opacity="1.000000" stroke="none" 
	d="
M214.388901,808.399109 
	C207.268066,784.874817 205.539078,761.304932 209.925949,737.546082 
	C214.869461,710.772461 227.039505,687.430054 244.730194,666.730408 
	C266.553406,641.195374 293.874451,624.328613 325.407806,613.626709 
	C335.802429,610.098999 345.922058,605.765076 356.296844,602.173584 
	C365.219727,599.084717 374.594849,597.180725 383.299225,593.606323 
	C404.417664,584.933960 419.893951,569.603760 431.216553,550.075500 
	C437.077057,539.967834 443.757416,530.452393 450.247162,520.773743 
	C461.272614,504.330658 472.041962,487.705536 482.518524,470.907166 
	C497.831543,446.353882 512.488708,421.404999 528.413025,397.215790 
	C544.236328,373.179871 558.757385,348.285858 574.613220,324.272369 
	C584.895447,308.700073 593.687256,292.286713 603.553894,276.498199 
	C604.661499,274.725739 606.604187,272.708710 604.185181,270.809296 
	C601.575134,268.759918 599.336548,265.432037 595.207092,266.672943 
	C593.950439,267.050537 592.823486,267.851654 591.626404,268.436829 
	C582.458801,272.918396 575.179260,272.217438 568.477783,266.214996 
	C561.212219,259.707275 558.944275,251.348419 562.202454,242.260620 
	C563.897461,237.533081 566.266357,233.137817 569.906128,229.547745 
	C580.523621,219.075272 597.868225,221.337250 605.571838,234.055298 
	C607.849060,237.814850 607.599182,241.767715 607.134644,245.681870 
	C606.481750,251.183441 611.218079,250.982300 614.057434,252.597015 
	C616.639587,254.065506 618.706482,252.966003 620.160828,250.256790 
	C625.354492,240.582321 631.753906,231.589935 636.470947,221.645554 
	C637.592163,219.281830 640.658142,216.484818 637.185608,214.239548 
	C633.822144,212.064743 630.146851,208.908066 625.520325,212.507095 
	C620.143311,216.689896 614.044861,217.667450 607.620239,215.249268 
	C594.383606,210.267105 589.817139,199.002701 595.347168,185.924500 
	C598.072021,179.480362 602.635071,174.704346 608.365723,171.196136 
	C620.160461,163.975632 636.059082,172.095062 638.110291,186.123535 
	C638.904663,191.556396 641.104309,193.436264 647.771851,194.499542 
	C651.926636,195.162109 653.497009,192.565170 655.250305,189.395203 
	C658.952637,182.701538 663.182129,176.301620 667.065735,169.704880 
	C668.186340,167.801361 670.204590,165.323639 667.448547,163.547775 
	C664.231567,161.474899 662.058716,156.661682 656.934326,158.755264 
	C654.329956,159.819305 651.858337,161.308151 649.174011,162.059433 
	C637.848633,165.229156 626.019409,156.988831 624.657166,145.150787 
	C622.782532,128.861343 631.131287,117.499191 647.324646,114.942398 
	C658.454773,113.185051 667.319275,121.120354 668.045532,134.507156 
	C668.404358,141.120956 670.520386,144.405655 676.308044,146.674988 
	C679.796082,148.042648 681.741577,147.421219 683.844543,144.498322 
	C690.351624,135.454224 696.617676,126.201675 704.893188,118.575661 
	C714.168518,110.028267 722.864075,100.743690 734.498535,95.208183 
	C751.585510,87.078445 769.405334,84.653030 788.269226,86.903633 
	C801.707275,88.506897 814.079529,92.504875 824.708984,100.464989 
	C847.601868,117.608871 860.723999,139.504517 856.557556,169.505753 
	C853.742615,189.775742 843.344543,203.801544 824.691467,211.989273 
	C807.423340,219.569122 781.597656,213.205811 774.707581,191.869339 
	C774.412415,190.955032 773.763855,190.154816 773.091797,188.969849 
	C770.690857,190.360031 769.423889,192.560410 768.105713,194.538925 
	C764.046387,200.631546 760.256226,206.903107 756.225098,213.015198 
	C754.307373,215.922897 754.273682,218.103973 757.670044,219.824585 
	C759.144470,220.571548 760.420959,221.698959 761.839539,222.568405 
	C766.178101,225.227539 769.371216,228.099762 775.803650,224.409454 
	C784.336853,219.513901 803.303772,224.495834 807.240112,236.680542 
	C811.605286,250.192657 800.341187,267.784485 786.058716,268.379547 
	C769.677795,269.062073 762.057617,263.198608 758.997620,246.962357 
	C758.231995,242.899826 754.868591,241.951187 752.465637,239.948196 
	C745.876343,234.455582 745.706360,234.561569 741.198914,241.803070 
	C737.949280,247.023727 734.851440,252.339325 731.715332,257.630035 
	C729.816772,260.833069 729.886230,263.864014 732.373413,266.840454 
	C733.970642,268.751862 735.190979,270.974945 736.751099,272.921387 
	C739.810852,276.738678 742.961365,279.171570 748.551575,276.733215 
	C756.340820,273.335724 764.565674,274.717651 771.512451,278.864197 
	C780.830139,284.425995 781.429504,296.515228 777.653503,305.259613 
	C773.401550,315.106262 761.518982,321.909882 750.847046,321.264496 
	C743.623413,320.827667 738.891663,316.390289 735.840088,310.394562 
	C733.608093,306.008972 731.543457,301.312469 732.051941,296.104736 
	C732.173401,294.860535 731.543152,294.244110 730.709961,293.670593 
	C726.159485,290.538025 722.892334,286.123749 719.327942,281.994141 
	C717.022095,283.142334 716.281555,285.292938 715.280884,287.129089 
	C711.300354,294.432800 707.651001,301.924042 703.473450,309.110138 
	C701.529663,312.453857 701.682739,314.795624 704.622192,317.191803 
	C706.032959,318.341858 707.292236,319.704254 708.490845,321.082825 
	C711.306030,324.320557 714.155762,324.841370 718.585266,323.546417 
	C727.221924,321.021484 735.854858,322.588043 743.438171,327.547119 
	C751.132812,332.578949 751.784851,340.598053 750.237183,348.523773 
	C748.130005,359.314697 737.002502,370.168213 725.009583,369.411743 
	C715.456787,368.809143 704.441528,359.775818 703.083069,349.319702 
	C702.230042,342.754211 698.739380,338.496948 694.667480,334.164459 
	C692.233765,331.575073 690.144043,331.789551 688.353943,334.946472 
	C673.580627,360.999847 658.914856,387.115326 643.963196,413.066010 
	C632.159424,433.553223 620.098511,453.894501 607.962402,474.187317 
	C598.049866,490.761932 589.625793,508.144501 580.032837,524.889099 
	C571.761597,539.326599 563.208008,553.618164 555.434570,568.320740 
	C547.121094,584.044739 538.220764,599.564453 532.160889,616.340820 
	C525.625000,634.434937 527.052917,652.316040 535.938782,669.457336 
	C544.210205,685.413391 553.007690,701.111450 560.815918,717.288879 
	C569.606201,735.500854 574.685913,754.742371 576.581909,775.078491 
	C578.717224,797.981628 574.928894,819.718018 567.656799,841.173218 
	C562.824768,855.429260 554.429382,867.579102 545.358521,879.352051 
	C528.570679,901.140564 506.872803,916.397949 481.614929,926.680054 
	C464.509155,933.643677 446.799957,936.939209 428.081024,935.691589 
	C415.981079,934.885193 403.836334,934.578064 391.838745,932.791260 
	C377.837372,930.706116 364.333038,926.483032 350.816193,922.363770 
	C332.581757,916.806824 315.342285,909.184082 298.990021,899.300964 
	C279.192078,887.335266 261.632935,872.564392 244.759689,856.971436 
	C230.422760,843.722168 221.069321,827.056519 214.388901,808.399109 
M397.703552,755.167053 
	C392.487183,762.525391 393.004730,764.785034 400.905304,769.057373 
	C402.950775,770.163635 405.060028,771.159546 407.058167,772.344116 
	C410.176636,774.192810 411.034546,776.562439 408.749756,779.780823 
	C405.670288,784.118652 402.667786,788.516418 399.783295,792.985901 
	C397.112518,797.124207 393.836121,796.804016 390.481354,794.272644 
	C388.185242,792.540100 385.678040,791.314270 383.149963,790.056580 
	C380.073029,788.525879 377.945526,789.277161 376.076172,792.272583 
	C367.089661,806.672302 359.260223,821.721008 351.302216,836.681213 
	C344.048615,850.317261 337.628082,864.393799 330.624634,878.166443 
	C324.986908,889.253357 324.779449,889.338135 336.706543,894.221252 
	C361.072998,904.197327 386.094971,905.775635 411.867950,900.514832 
	C421.653564,898.517273 430.451569,894.620056 439.235199,890.314026 
	C461.922424,879.191833 479.722015,863.280701 492.072266,840.728455 
	C509.834473,808.293701 514.680298,774.587280 506.719421,738.587891 
	C502.705017,720.434570 495.351654,703.556152 488.862518,686.316101 
	C483.189728,671.244812 477.702209,656.109924 476.586670,639.819458 
	C476.439972,637.676941 476.017700,635.497742 472.747406,634.115479 
	C446.923798,673.604919 423.557861,714.738586 397.703552,755.167053 
M342.132751,714.714355 
	C355.255737,693.703552 368.324829,672.658752 381.520660,651.693787 
	C390.289124,637.762878 399.257355,623.957886 408.087830,610.065735 
	C409.462036,607.903870 411.198395,605.745544 410.393127,602.999695 
	C408.196381,601.851257 406.935760,603.279785 405.530518,604.020569 
	C392.990204,610.630798 380.127228,616.246033 366.059265,618.962036 
	C350.306763,622.003357 335.696198,628.472656 321.061096,634.839600 
	C311.467560,639.013245 302.066559,643.529175 293.070648,648.849426 
	C272.940002,660.754639 258.712524,678.479858 245.630630,697.305237 
	C239.732132,705.793396 234.213547,714.589600 231.321411,724.546448 
	C224.571320,747.785400 225.716324,771.181458 231.078415,794.518005 
	C236.753143,819.215332 251.520493,837.779846 270.892731,853.188354 
	C274.267670,855.872681 276.094971,855.336060 278.034943,851.008484 
	C291.233978,821.564880 303.525208,791.719238 317.364014,762.556396 
	C320.834961,755.242004 320.511841,755.120178 313.710388,750.288574 
	C311.952484,749.039673 310.271912,747.663269 308.667999,746.220642 
	C306.211731,744.011292 305.972809,741.153381 307.446198,738.489075 
	C309.850464,734.141602 312.543915,729.941589 315.313232,725.812073 
	C317.891693,721.967163 321.447388,720.987000 325.767639,722.875122 
	C336.240845,727.452148 334.167877,727.163391 340.592102,717.547302 
	C341.052429,716.858215 341.385254,716.083984 342.132751,714.714355 
M520.772522,680.529907 
	C520.023193,678.324463 519.431213,676.049988 518.499329,673.924561 
	C511.712616,658.445435 509.902405,642.159607 511.910156,625.632141 
	C513.857239,609.604492 520.316345,594.884216 527.984131,580.809753 
	C539.042297,560.512024 550.539124,540.453735 561.665100,520.192383 
	C570.696716,503.745056 579.087891,486.936493 588.437378,470.675812 
	C598.971558,452.354614 610.336304,434.512817 621.195312,416.375977 
	C628.448425,404.261719 635.366150,391.946960 642.583374,379.810791 
	C652.279297,363.506470 660.012695,346.105591 670.255798,330.121063 
	C682.556274,310.926025 693.098572,290.711914 704.772156,271.151794 
	C717.885498,249.179367 727.909363,225.484497 741.906372,203.972504 
	C748.520447,193.807343 754.354431,183.164749 761.526428,173.319107 
	C765.704895,167.582947 771.767517,163.773743 775.707092,157.986237 
	C781.599854,149.329361 789.551147,143.807343 799.723999,141.444702 
	C808.577942,139.388412 819.166199,144.193436 822.994141,151.988358 
	C827.216125,160.585617 825.124573,170.395020 817.591125,176.692780 
	C814.770325,179.050919 811.213623,179.301483 808.198669,177.750351 
	C805.244385,176.230392 805.618408,173.146805 806.556580,170.201416 
	C807.205566,168.163971 807.537842,165.987106 807.712036,163.848129 
	C807.876709,161.825150 806.954773,160.119629 804.748169,159.927673 
	C800.428101,159.551880 796.419189,160.524399 793.803650,164.271210 
	C789.149414,170.938431 788.940735,178.063431 791.639282,185.638962 
	C796.269043,198.635513 821.585327,199.468628 829.430664,187.591049 
	C837.572449,175.264740 841.681580,162.699127 835.773987,147.752167 
	C828.525330,129.411728 813.675964,124.972565 796.567566,128.289078 
	C781.843384,131.143372 772.237305,142.061584 762.927002,152.753830 
	C756.965942,159.599823 751.743652,166.996201 746.794922,174.708771 
	C741.693054,182.660049 736.707581,190.693695 731.809753,198.769608 
	C725.888611,208.532715 721.432800,219.118362 715.732910,228.976837 
	C708.827820,240.919968 702.719666,253.284012 695.612366,265.130188 
	C685.969177,281.203186 677.551636,298.006042 668.199829,314.260834 
	C657.371826,333.081360 646.348145,351.799805 634.937134,370.270844 
	C626.892273,383.293030 620.762939,397.278748 613.463928,410.669678 
	C607.312378,421.955444 599.350708,432.041718 592.924988,443.094025 
	C579.884705,465.523499 567.221130,488.172241 554.432678,510.747833 
	C547.952148,522.187988 541.101013,533.370605 533.606873,544.201416 
	C525.457031,555.979919 520.078125,569.380737 512.819580,581.709961 
	C504.370636,596.060913 498.221741,611.473572 496.691223,628.023010 
	C495.197968,644.169678 496.453552,660.024963 504.439362,675.184143 
	C514.996887,695.225159 521.181946,717.042297 525.263855,739.285583 
	C529.556580,762.677673 529.499207,786.055603 523.872620,809.420776 
	C520.237610,824.515686 513.642273,838.157471 506.411682,851.679688 
	C499.765991,864.108032 492.111450,875.681213 481.360321,885.000671 
	C466.682343,897.723877 449.682709,906.350708 431.734772,913.319946 
	C429.193390,914.306824 426.572754,915.087158 424.627197,917.305664 
	C438.185303,919.492493 451.209534,917.681763 463.844086,914.204956 
	C496.186584,905.304871 520.102600,884.568542 539.004578,857.823730 
	C557.083252,832.243652 562.082642,802.861084 558.076172,772.591858 
	C554.972351,749.142212 545.655029,727.157104 535.117371,705.877869 
	C530.901794,697.364990 524.090881,690.393555 520.772522,680.529907 
M492.119568,561.532532 
	C481.448853,578.799683 470.985779,596.199707 460.046478,613.294983 
	C450.001343,628.992859 441.709656,645.681091 432.035065,661.578796 
	C421.680115,678.594421 411.628815,695.801453 400.959106,712.616760 
	C393.354309,724.601807 387.201019,737.265991 381.316895,750.109558 
	C380.365601,752.186035 379.653839,754.219543 382.422363,755.607971 
	C385.006866,756.904053 386.464966,755.626343 387.699463,753.529602 
	C391.666626,746.791260 395.640747,740.056824 399.651825,733.344543 
	C414.323822,708.792114 427.893219,683.554382 444.039490,659.918945 
	C453.624969,645.887451 462.642822,631.515320 470.941742,616.743469 
	C482.261322,596.595032 493.468170,576.375061 505.548889,556.685425 
	C520.947754,531.587891 536.003052,506.291412 550.975769,480.942413 
	C567.053223,453.723206 583.157227,426.519287 599.117798,399.231567 
	C613.393005,374.825226 626.460083,349.721893 641.510193,325.760132 
	C660.628723,295.321075 676.416321,262.996185 694.581970,232.019684 
	C696.376465,228.959732 695.794006,227.245712 692.877930,225.363922 
	C689.818481,226.950989 688.132996,229.762054 686.550049,232.670914 
	C677.976685,248.424713 669.775391,264.396179 660.724548,279.870667 
	C651.238647,296.088837 640.922852,311.821075 630.995972,327.781952 
	C623.085266,340.500946 614.571899,353.046814 608.844299,366.808563 
	C601.710327,383.949646 589.945557,398.060791 580.703613,413.777283 
	C575.266357,423.023590 568.438599,431.649200 563.714783,441.308197 
	C550.591553,468.141693 533.826904,492.740082 518.118042,518.002991 
	C512.922791,526.358032 505.877594,533.900024 504.937805,544.475281 
	C504.821045,545.789368 503.721497,547.498657 502.577972,548.156006 
	C497.466736,551.094116 495.534912,556.426575 492.119568,561.532532 
M532.801208,438.340576 
	C547.398621,417.051514 560.430481,394.802246 573.247620,372.420563 
	C579.856628,360.879761 585.908936,348.965088 593.268738,337.923187 
	C602.679260,323.804718 611.990051,309.613434 620.782959,295.130310 
	C635.713623,270.537384 649.199097,245.079346 664.729980,220.833435 
	C665.821289,219.129807 665.830505,217.837418 664.090820,216.584213 
	C662.489990,215.431015 660.997437,215.285522 659.667053,216.815613 
	C658.580566,218.065262 657.571289,219.407990 656.702271,220.817108 
	C643.881409,241.606934 631.528992,262.676300 619.038574,283.663818 
	C614.706299,290.943298 611.023315,298.585022 606.289001,305.644379 
	C599.620850,315.587219 592.742981,325.455200 586.958252,335.910431 
	C576.326050,355.127045 563.782776,373.138794 552.597351,392.005615 
	C539.200867,414.601929 524.838867,436.620514 510.515717,458.656769 
	C500.562958,473.969147 491.974731,490.161835 482.307434,505.668579 
	C475.640625,516.362366 468.377930,526.729004 461.128418,537.010742 
	C448.517761,554.896179 439.228210,574.619385 428.264282,593.387146 
	C420.062317,607.427063 411.660431,621.389832 403.532532,635.483582 
	C392.081055,655.340454 378.009155,673.615173 366.631866,693.586426 
	C360.216034,704.848511 353.379272,715.870239 346.841003,727.063843 
	C345.639679,729.120544 343.930634,731.538574 347.077850,733.573059 
	C350.422028,735.734802 351.620392,732.674805 352.890717,730.840637 
	C356.393097,725.783569 359.818390,720.648193 362.890656,715.322571 
	C374.450409,695.284241 386.134216,675.295105 398.959503,656.062866 
	C414.022369,633.475098 427.106659,609.705383 441.671600,586.828064 
	C451.206970,571.850586 459.250122,555.894531 469.200073,541.216309 
	C483.213531,520.543701 495.569153,498.881256 508.866760,477.788849 
	C516.939697,464.983612 524.557861,451.891632 532.801208,438.340576 
M422.015869,636.426575 
	C417.104401,643.949707 411.968781,651.337585 407.330261,659.025391 
	C398.821136,673.128113 390.675842,687.449890 382.244537,701.600281 
	C375.604156,712.744995 368.748962,723.761597 362.017303,734.852173 
	C360.076508,738.049683 358.882874,741.010193 362.918213,743.894226 
	C368.977356,748.224731 371.263641,747.805542 374.988342,741.105408 
	C382.020355,728.456055 388.857788,715.688965 396.240295,703.246216 
	C405.575409,687.512451 415.437469,672.092224 424.956757,656.466431 
	C436.894867,636.870117 448.728668,617.210144 460.582916,597.562805 
	C469.099976,583.446472 477.618530,569.330688 486.045776,555.160767 
	C488.547882,550.953552 490.329285,546.735291 487.039856,541.794556 
	C484.417786,537.856201 482.668243,537.386597 480.183319,541.350891 
	C469.763885,557.973022 459.357025,574.604309 449.111877,591.333984 
	C440.080566,606.081665 431.270081,620.964539 422.015869,636.426575 
M694.643433,160.123535 
	C688.745605,168.154999 688.966370,169.136963 696.774048,175.301208 
	C701.247559,178.833038 706.231018,181.336090 711.349670,183.712601 
	C718.030334,186.814316 719.751038,186.352493 723.289734,180.116302 
	C731.242126,166.101624 738.546143,151.615494 749.515930,139.613480 
	C758.123169,130.196335 766.408447,120.344490 778.367065,114.640343 
	C782.414673,112.709648 786.867554,111.281578 790.291565,108.378967 
	C789.767944,106.505371 788.556885,106.512421 787.400879,106.322563 
	C771.783386,103.757645 757.123230,107.878616 742.619812,112.847099 
	C740.145569,113.694695 737.687683,115.008308 735.647827,116.638992 
	C720.131531,129.042831 706.146301,142.923859 694.643433,160.123535 
M593.952881,356.649017 
	C602.142273,360.621857 602.482178,360.695343 606.995361,353.256622 
	C621.491638,329.363434 635.831726,305.375458 650.243408,281.430878 
	C660.972046,263.605469 671.566650,245.703613 681.239929,227.274734 
	C683.233765,223.476257 682.009277,220.718994 678.236877,220.459671 
	C676.038940,220.308578 675.010071,221.909134 674.016357,223.457123 
	C660.910400,243.872009 648.678528,264.807648 636.853455,285.983490 
	C632.066284,294.556061 627.247742,303.107544 621.767212,311.263641 
	C612.785889,324.629639 603.762695,337.967651 594.826599,351.363800 
	C593.933960,352.701935 593.065796,354.242950 593.952881,356.649017 
M342.136566,795.763489 
	C345.367554,789.953674 348.592682,784.140503 351.831421,778.335022 
	C354.241699,774.014648 351.616150,771.948853 348.249084,770.121826 
	C344.127838,767.885498 343.409576,771.359192 342.256775,773.754578 
	C339.521423,779.438538 337.075104,785.262756 334.297760,790.925171 
	C325.754150,808.344055 318.776947,826.484070 309.813873,843.713745 
	C305.674744,851.670349 301.998779,859.867371 298.089172,867.944031 
	C296.732819,870.746155 297.588593,872.801331 300.199677,874.171753 
	C302.875885,875.576477 304.646027,874.199524 305.941895,871.955444 
	C306.687958,870.663513 307.317169,869.296265 307.907593,867.923645 
	C318.336761,843.678284 328.967712,819.529114 342.136566,795.763489 
M295.736145,849.299683 
	C298.738220,843.193054 301.940125,837.175293 304.704376,830.962830 
	C312.529968,813.375122 320.167328,795.703735 327.900574,778.074768 
	C329.566925,774.276001 331.314056,770.512329 333.043610,766.741577 
	C334.033356,764.583679 333.706360,762.793335 331.482605,761.724548 
	C329.356476,760.702759 327.579346,761.352722 326.359375,763.335327 
	C325.664886,764.463928 325.019775,765.642334 324.516449,766.865845 
	C322.125122,772.678406 319.949127,778.584534 317.407623,784.329529 
	C306.449371,809.100647 297.530975,834.666931 287.820526,859.924011 
	C287.346344,861.157288 286.304504,862.648682 288.405792,864.149292 
	C291.690613,859.818115 292.852722,854.525574 295.736145,849.299683 
M686.192993,209.501358 
	C687.820496,210.447617 689.575562,210.647125 691.445374,210.745178 
	C693.929871,210.875458 696.245789,211.455841 698.007629,213.686707 
	C700.998047,217.473373 701.959290,217.287323 704.130554,213.066055 
	C704.660645,212.035446 705.137878,210.970139 705.752258,209.991608 
	C708.771179,205.182938 708.623779,204.200745 703.378967,201.812866 
	C695.253662,198.113556 688.079285,193.169693 682.034973,186.591339 
	C681.258240,185.745972 680.504822,184.811630 678.687195,184.782043 
	C675.249451,188.115707 673.573425,192.715378 671.616699,197.293915 
	C669.894470,201.323547 672.123779,203.718933 674.865112,204.128708 
	C679.117981,204.764450 682.102295,207.203049 686.192993,209.501358 
M366.793945,786.260986 
	C367.821838,784.535400 368.395264,782.764648 366.196472,781.566223 
	C364.305084,780.535339 362.588379,781.221069 361.363007,782.863953 
	C359.872528,784.862061 358.282715,786.839844 357.143311,789.037720 
	C346.126892,810.287842 334.236176,831.094788 325.307800,853.398254 
	C322.479645,860.463257 319.803406,867.695496 315.248718,873.997192 
	C314.243042,875.388611 312.730591,877.177734 314.079163,879.489685 
	C315.795654,879.268250 316.355011,878.015869 316.952972,876.878235 
	C322.910767,865.544312 328.854889,854.203247 334.793274,842.859192 
	C344.737732,823.862366 353.972809,804.465881 366.793945,786.260986 
M532.197937,478.681335 
	C535.175293,473.898315 538.095581,469.078491 541.148621,464.344269 
	C543.484131,460.722534 544.924988,457.189453 543.151978,452.715363 
	C542.233643,450.397980 542.199036,447.259216 539.395508,446.888550 
	C536.659058,446.526764 535.429810,449.379211 534.148926,451.491730 
	C529.943665,458.427063 525.696838,465.337860 521.565002,472.316681 
	C520.354736,474.360809 517.339172,476.426636 521.055298,478.943115 
	C526.845825,482.864258 529.072876,482.947754 532.197937,478.681335 
M517.729675,501.315948 
	C519.289734,498.627045 518.551819,496.719604 515.974060,495.059967 
	C511.281952,492.039124 508.789551,493.054718 505.255890,499.445587 
	C501.480255,506.273987 497.615204,513.054138 493.697815,519.802307 
	C492.233978,522.323975 491.194946,524.508484 494.446320,526.548401 
	C499.165131,529.508911 501.288544,529.433350 503.614014,525.663330 
	C508.412994,517.883484 513.342590,510.177460 517.729675,501.315948 
M592.749268,372.824036 
	C591.249146,372.113525 589.666260,371.535980 588.266785,370.663910 
	C585.619629,369.014374 584.056152,370.040466 582.670593,372.428436 
	C578.418884,379.756226 574.133118,387.065552 569.750427,394.315460 
	C568.000244,397.210602 567.769104,399.409607 571.194214,401.280731 
	C574.251892,402.951080 576.525085,403.371063 578.702026,399.840057 
	C582.981323,392.898987 587.611694,386.174927 592.057373,379.335480 
	C593.233032,377.526794 594.542786,375.679749 592.749268,372.824036 
M548.373596,438.930511 
	C553.532532,443.750153 553.585327,443.749390 556.950195,437.360474 
	C559.415100,432.680389 561.686218,427.889954 564.337158,423.318939 
	C566.274170,419.979095 565.379333,418.034058 562.403748,415.921997 
	C559.124695,413.594574 557.084045,414.987000 555.436462,417.587524 
	C552.430725,422.331787 549.633911,427.211365 546.845398,432.089020 
	C545.533081,434.384460 545.976501,436.555542 548.373596,438.930511 
M778.567566,240.904251 
	C778.170532,241.798889 777.630310,242.658585 777.401978,243.594391 
	C776.528931,247.171478 778.115601,249.480026 781.540955,250.226730 
	C784.973022,250.974899 787.479858,249.114334 788.420837,246.014420 
	C789.536072,242.340683 786.578796,241.452667 783.853577,240.268723 
	C781.987915,239.458160 780.682556,240.610977 778.567566,240.904251 
M725.312744,350.209686 
	C728.834961,351.770294 729.942871,349.007355 731.452576,346.845978 
	C732.294067,345.641327 732.784058,344.509064 731.648987,343.279968 
	C729.767761,341.242767 727.363586,340.694092 724.829346,341.487427 
	C723.177124,342.004608 720.806335,342.360718 720.718689,344.542389 
	C720.616089,347.097260 722.645752,348.609680 725.312744,350.209686 
M755.948975,291.901611 
	C752.793823,292.905823 752.546326,296.659332 749.683472,297.917786 
	C751.196167,301.365723 753.520935,302.383789 756.691956,301.608643 
	C759.030762,301.036957 760.550476,299.497711 760.715393,297.103912 
	C760.912354,294.244354 759.435730,292.398224 755.948975,291.901611 
M612.514404,190.875824 
	C612.296509,192.793518 612.873901,194.531815 614.033325,195.983200 
	C615.304810,197.574738 617.179993,198.405045 618.772522,196.818466 
	C620.453064,195.144135 620.940247,192.725845 620.530579,190.344559 
	C620.254272,188.738525 619.031006,187.816376 617.474182,187.402161 
	C614.959045,186.732925 613.877747,188.467072 612.514404,190.875824 
M582.754517,242.961563 
	C580.573730,244.654099 578.588867,246.509476 580.419067,249.519638 
	C581.420288,251.166367 583.223328,252.411774 584.974182,251.074493 
	C586.918762,249.589218 590.181641,248.384827 589.423828,245.259796 
	C588.737305,242.428970 586.061462,242.004257 582.754517,242.961563 
M652.044189,137.706955 
	C651.073425,136.873672 650.493225,135.479294 649.016357,135.370483 
	C647.123230,135.231049 645.409546,135.878845 644.137756,137.238831 
	C643.030884,138.422455 643.107300,140.006470 643.724731,141.400528 
	C644.292847,142.683319 645.758850,143.777451 646.851379,143.234848 
	C649.100952,142.117615 652.036255,141.440384 652.044189,137.706955 
z"/>
</svg>