<svg version="1.1" id="Layer_1" xmlns="http://www.w3.org/2000/svg" xmlns:xlink="http://www.w3.org/1999/xlink" x="0px" y="0px"
	 width="100%" viewBox="0 0 1024 1024" enable-background="new 0 0 1024 1024" xml:space="preserve">
<path fill="none" opacity="1.000000" stroke="#000000" stroke-linecap="round" stroke-linejoin="round" stroke-width="17.000000"
	d="
M565.500000,330.000000 
	C569.473083,322.053925 564.747803,316.372253 560.570496,310.450256 
	C559.825867,309.394623 558.666077,309.042053 558.207458,307.067963 
	C555.880615,297.050873 549.661255,290.028717 539.499329,287.002258 
	C538.130127,286.594482 536.681702,286.654053 535.476501,285.525085 
	C518.041931,269.193542 496.593567,260.206421 474.489410,252.530518 
	C451.299561,244.477585 427.305237,239.935303 402.995850,237.034805 
	C379.737396,234.259720 356.325348,234.365479 333.010071,235.262222 
	C319.824738,235.769379 306.614441,237.676849 293.468262,239.803802 
	C271.191010,243.408096 249.456741,248.697266 228.519058,257.047791 
	C212.133514,263.582794 195.682434,270.125702 182.510178,282.510834 
	C180.929123,283.997406 178.887970,284.119293 176.991074,284.448578 
	C172.343155,285.255493 168.143112,286.721649 164.984619,290.487091 
	C161.720444,294.378448 158.387283,298.215546 154.977356,301.979492 
	C153.260864,303.874176 152.173767,305.997070 152.546173,308.493103 
	C153.169525,312.671295 151.165024,315.837463 148.997360,318.998199 
	C143.817184,326.551514 142.389725,335.071594 142.487442,344.000153 
	C142.501541,345.287476 142.565506,346.178436 143.944946,347.083893 
	C147.505829,349.421143 150.039398,353.117401 154.000000,355.000000 
"/>
<path fill="none" opacity="1.000000" stroke="#000000" stroke-linecap="round" stroke-linejoin="round" stroke-width="13.000000"
	d="
M295.500000,398.500000 
	C293.119568,407.654663 291.715637,417.057861 288.501465,426.000519 
	C288.323242,426.496368 287.874359,427.151123 288.043182,427.477692 
	C291.419342,434.007538 288.630157,440.656372 287.787476,446.971649 
	C284.877167,468.781464 282.221893,490.617981 280.061493,512.506042 
	C277.419281,539.276306 275.429474,566.095825 274.383301,592.995483 
	C273.760864,609.000916 273.261688,624.998352 273.561859,640.998840 
	C273.992279,663.940125 276.032684,686.771240 282.155090,708.957214 
	C284.504700,717.471619 287.493439,726.029419 292.557037,733.461121 
	C297.461151,740.658875 296.226898,748.271057 295.000000,756.000000 
"/>
<path fill="none" opacity="1.000000" stroke="#000000" stroke-linecap="round" stroke-linejoin="round" stroke-width="13.000000"
	d="
M239.000000,417.000000 
	C235.788177,419.355804 235.309158,423.174164 234.603424,426.521790 
	C229.903976,448.813110 225.236649,471.117645 221.069336,493.512909 
	C216.290466,519.194641 211.755386,544.943359 209.552979,571.004456 
	C207.749466,592.345154 207.421585,613.765442 210.605667,634.984131 
	C214.546616,661.246704 222.396011,686.213196 237.428833,708.547913 
	C240.906876,713.715271 244.377167,718.829773 248.491699,723.507324 
	C253.512360,729.214966 255.834305,735.899658 255.500000,743.500000 
"/>
<path fill="none" opacity="1.000000" stroke="#000000" stroke-linecap="round" stroke-linejoin="round" stroke-width="13.000000"
	d="
M546.000000,311.500000 
	C545.017456,313.913452 544.992432,316.439728 544.970947,318.999756 
	C544.942078,322.431030 546.491638,325.893036 546.172791,328.966064 
	C545.843262,332.142883 542.558472,334.864990 541.934692,338.488770 
	C541.815979,339.178528 541.788269,340.002747 540.566956,340.630280 
	C537.071960,342.425934 534.243408,345.421265 532.118713,348.579865 
	C528.135803,354.500763 523.340332,359.176941 517.032776,362.561066 
	C510.716888,365.949646 504.635468,369.782104 498.508606,373.514130 
	C492.208649,377.351685 485.707428,380.694733 478.501984,382.507874 
	C475.682800,383.217285 473.325562,384.839600 470.655670,386.733429 
	C473.417053,393.857300 475.368164,401.328705 476.493896,409.000885 
	C476.541748,409.327209 476.501251,409.666656 476.499817,410.000000 
	C476.476624,415.419586 476.339508,420.818420 478.464355,426.014587 
	C480.482300,430.949249 480.221313,436.345795 480.885132,441.514740 
	C483.424164,461.285889 485.154327,481.150909 487.148285,500.985107 
	C489.774994,527.113220 491.917480,553.256592 491.383942,579.497620 
	C490.810822,607.683228 488.166687,635.697693 478.455963,662.484070 
	C470.538208,684.324646 459.651489,704.508240 443.479095,721.480103 
	C437.513794,727.740295 437.381042,735.185486 438.500000,743.000000 
"/>
<path fill="none" opacity="1.000000" stroke="#000000" stroke-linecap="round" stroke-linejoin="round" stroke-width="13.000000"
	d="
M224.000000,377.500000 
	C221.027206,383.597748 218.574585,389.781036 216.495071,396.339905 
	C213.680496,405.217346 214.727921,414.267120 212.245483,423.069244 
	C208.323456,436.975861 206.155029,451.368317 202.968338,465.492859 
	C195.925461,496.709167 190.194199,528.137085 186.995590,559.999573 
	C185.509674,574.801392 184.656036,589.690002 185.648331,604.490051 
	C187.457031,631.466553 191.598557,658.083313 201.458603,683.516052 
	C203.288895,688.237061 203.094513,693.166687 201.500000,698.000000 
"/>
<path fill="none" opacity="1.000000" stroke="#000000" stroke-linecap="round" stroke-linejoin="round" stroke-width="14.000000"
	d="
M176.500000,337.500000 
	C167.446579,340.630096 160.730713,346.628387 155.450058,354.466339 
	C154.883194,355.307739 154.376312,355.969208 154.495758,357.000488 
	C156.242538,372.083618 151.196259,386.236084 147.807297,400.454071 
	C140.779190,429.939606 132.472961,459.118011 125.086792,488.521790 
	C121.708878,501.969055 119.326706,515.662354 118.006088,529.500610 
	C117.547157,534.309448 116.209389,538.763550 112.995880,542.496460 
	C111.872070,543.801941 111.308441,545.243408 111.490273,547.000977 
	C112.628578,558.004089 112.838425,569.072083 114.908150,580.017395 
	C118.248886,597.684082 123.041763,614.751953 131.939041,630.534363 
	C134.619446,635.289062 138.069809,638.540405 143.500000,639.500000 
"/>
<path fill="none" opacity="1.000000" stroke="#000000" stroke-linecap="round" stroke-linejoin="round" stroke-width="13.000000"
	d="
M719.500000,456.500000 
	C725.323425,456.267334 730.781860,458.468109 736.470093,459.224823 
	C739.144531,459.580566 741.851746,460.146088 744.492737,459.916382 
	C748.832275,459.538971 750.764343,461.441742 751.579651,465.483948 
	C751.955994,467.349945 751.986084,469.161346 751.986389,471.000000 
	C752.002136,552.666687 751.975220,634.333313 752.040588,715.999939 
	C752.046753,723.666870 752.966858,731.333313 752.000000,739.000000 
"/>
<path fill="none" opacity="1.000000" stroke="#000000" stroke-linecap="round" stroke-linejoin="round" stroke-width="13.000000"
	d="
M808.000000,434.500000 
	C809.000000,439.000000 810.854126,443.509705 810.803101,447.997772 
	C810.723267,455.020966 812.868042,461.383240 814.367981,468.029785 
	C817.316528,481.095215 819.818176,494.283112 821.907043,507.514679 
	C823.843201,519.779114 825.087402,532.156921 826.463623,544.504028 
	C827.166992,550.814636 828.191956,557.112061 828.000000,563.500000 
"/>
<path fill="none" opacity="1.000000" stroke="#000000" stroke-linecap="round" stroke-linejoin="round" stroke-width="12.000000"
	d="
M823.000000,645.000000 
	C820.378784,661.301941 815.058838,676.909790 809.749268,692.414124 
	C806.717896,701.265869 802.771362,710.072998 797.440186,717.959534 
	C793.906616,723.186890 792.067444,728.827698 791.500000,735.000000 
"/>
<path fill="none" opacity="1.000000" stroke="#000000" stroke-linecap="round" stroke-linejoin="round" stroke-width="14.000000"
	d="
M724.000000,734.000000 
	C723.929810,722.130676 720.519348,710.926880 716.384949,700.043701 
	C711.388000,686.889954 709.315125,673.125977 706.515686,659.496765 
	C704.475098,649.562195 702.529602,639.600891 701.520508,629.497925 
	C700.341614,617.694702 699.236572,606.015015 700.070801,593.970276 
	C700.780396,583.726013 701.143372,573.331421 701.547302,563.001831 
	C701.947754,552.763611 703.528259,542.629395 705.015015,532.502197 
	C707.889282,512.924988 712.466919,493.643921 715.123962,474.016785 
	C715.905640,468.243042 715.413696,462.091736 718.540405,456.773773 
	C719.176147,455.692627 718.927429,455.017059 718.546570,453.982849 
	C716.755676,449.120392 718.017029,444.513367 719.989502,439.995422 
	C720.558472,438.692169 721.057312,437.351624 721.489929,435.996765 
	C723.163452,430.756317 724.118408,429.466919 730.979675,431.086090 
	C739.130371,433.009583 747.796448,432.527283 755.545044,436.410095 
	C756.377441,436.827179 757.865173,436.097992 758.993896,435.731293 
	C762.151794,434.705353 765.302673,434.777863 768.502563,435.488312 
	C771.231445,436.094208 772.530762,437.782928 773.033691,440.493744 
	C774.313660,447.392700 774.407898,454.576202 777.757812,460.995941 
	C778.240356,461.920746 777.989441,462.720642 777.495850,463.497375 
	C774.925354,467.542114 775.612000,472.071808 775.488708,476.499695 
	C773.415161,550.992249 775.032288,625.501038 774.441162,699.999512 
	C774.377686,708.002991 773.894775,716.051941 772.851624,723.980469 
	C772.228333,728.717712 773.200378,733.034546 774.000000,737.500000 
"/>
<path fill="none" opacity="1.000000" stroke="#000000" stroke-linecap="round" stroke-linejoin="round" stroke-width="14.000000"
	d="
M547.000000,329.500000 
	C550.833313,329.500000 554.666748,329.488007 558.500000,329.502655 
	C565.122620,329.527985 569.232056,331.538696 570.273743,337.539276 
	C571.517395,344.703308 572.647522,352.110077 571.058350,359.512512 
	C570.764160,360.882629 570.802856,361.687744 569.017456,362.079651 
	C560.235840,364.007172 560.129211,371.218506 560.100952,378.000427 
	C560.080872,382.831604 560.879578,387.682739 561.522583,392.496979 
	C563.460022,407.005341 565.370850,421.519287 567.533203,435.995026 
	C570.139771,453.444183 572.391113,470.928741 574.063660,488.493927 
	C574.406006,492.089722 575.513733,496.026520 578.128174,498.356140 
	C582.140503,501.931366 581.677490,505.911011 581.631104,510.501312 
	C581.522949,521.201477 580.945068,531.845581 580.046387,542.503906 
	C577.959045,567.259155 571.347900,590.790527 561.509033,613.503906 
	C559.357666,618.470337 555.467224,621.339233 550.500000,623.000000 
"/>
<path fill="none" opacity="1.000000" stroke="#000000" stroke-linecap="round" stroke-linejoin="round" stroke-width="14.000000"
	d="
M176.000000,384.000000 
	C171.145477,388.241394 170.870422,394.323090 169.477890,399.994568 
	C164.031967,422.174500 158.708664,444.387787 152.943680,466.485321 
	C146.671280,490.527863 141.309082,514.762573 139.144989,539.512695 
	C137.398346,559.488403 137.119858,579.532776 140.359955,599.522705 
	C141.666031,607.580627 142.987534,615.581665 144.890182,623.526306 
	C145.938034,627.901672 146.304352,632.563599 144.496628,636.998596 
	C143.592834,639.215942 144.367874,640.949280 145.414139,643.042908 
	C155.280792,662.785950 169.624588,678.669617 187.008026,691.989563 
	C189.282822,693.732605 191.772430,695.206848 193.965866,697.040833 
	C195.663528,698.460327 197.096054,699.514893 199.533142,698.587036 
	C201.085724,697.995850 202.347580,698.912781 203.602341,700.414490 
	C206.033875,703.324585 207.410583,706.720642 208.956253,710.020508 
	C216.549026,726.230530 227.763870,738.401550 245.500000,743.500000 
"/>
<path fill="none" opacity="1.000000" stroke="#000000" stroke-linecap="round" stroke-linejoin="round" stroke-width="13.000000"
	d="
M460.000000,736.000000 
	C470.740509,728.712585 479.716217,719.915771 484.524963,707.509644 
	C485.005157,706.270752 485.596222,704.908447 486.539124,704.042542 
	C491.988007,699.038696 493.762848,691.729004 498.067719,686.051331 
	C499.328766,684.388123 499.021393,683.287231 498.623413,681.472900 
	C497.565155,676.648376 497.616638,671.744202 499.489868,666.995972 
	C505.264404,652.358826 507.803162,637.012878 510.127075,621.519043 
	C513.968018,595.911133 513.272522,570.182068 512.812500,544.503357 
	C512.435120,523.440125 510.490295,502.409180 507.573578,481.489746 
	C505.838562,469.045746 504.976440,456.482513 503.451538,444.005920 
	C502.368134,435.142029 499.415680,426.266907 499.825775,417.515259 
	C500.472290,403.717804 495.067047,392.229614 489.500000,380.500000 
"/>
<path fill="none" opacity="1.000000" stroke="#000000" stroke-linecap="round" stroke-linejoin="round" stroke-width="14.000000"
	d="
M196.500000,699.500000 
	C193.730286,704.645203 189.288025,708.234680 185.017776,712.020081 
	C177.300812,718.860779 171.355484,727.139832 168.621643,737.033630 
	C163.348450,756.117371 168.548248,773.008728 181.551941,787.453247 
	C195.641586,803.103943 213.943298,812.650696 233.062286,820.345276 
	C251.496613,827.764282 270.770111,832.577209 290.490021,835.565857 
	C304.600403,837.704285 318.780701,838.606079 332.989105,839.648560 
	C348.059113,840.754456 363.038452,839.561829 377.987946,838.771851 
	C393.136444,837.971436 408.134247,835.189270 423.026794,831.870300 
	C443.430664,827.322998 462.941010,820.730286 481.548370,811.093384 
	C502.178162,800.409119 518.035583,785.464478 527.571167,764.031677 
	C529.940491,758.706299 529.005127,753.356567 528.957397,748.000366 
	C528.792603,729.507446 518.376404,716.958130 504.496063,706.505188 
	C500.688416,703.637756 496.833313,700.833374 493.000000,698.000000 
"/>
<path fill="none" opacity="1.000000" stroke="#000000" stroke-linecap="round" stroke-linejoin="round" stroke-width="15.000000"
	d="
M898.000000,413.500000 
	C906.487793,400.061401 900.983093,387.528046 895.477539,375.009888 
	C895.150818,374.266998 894.634766,373.461975 893.979736,373.030792 
	C884.549377,366.823212 879.794434,356.261810 871.507263,348.991699 
	C857.634155,336.821075 841.287781,329.244263 823.989624,323.531342 
	C803.553833,316.782166 782.515442,314.377625 761.006592,313.767944 
	C741.966675,313.228241 723.336792,314.693237 705.017578,319.566132 
	C688.165039,324.048859 671.965820,329.971344 658.925720,342.422241 
	C654.518860,346.629974 650.628479,351.001160 647.980347,356.490509 
	C646.289368,359.995728 644.347839,362.886353 640.655457,365.243530 
	C634.605408,369.105896 632.268188,375.984863 631.567322,383.006714 
	C630.789001,390.803925 629.468872,398.717041 631.199646,406.455353 
	C631.772888,409.018250 630.013672,409.691681 629.350403,410.919159 
	C625.599976,417.860352 624.924927,425.632782 623.140137,433.033783 
	C619.102783,449.775970 616.213562,466.780457 612.096069,483.523621 
	C610.516357,489.947021 610.570374,496.548737 615.256836,501.974457 
	C608.537415,512.572815 604.370911,523.620239 605.046326,535.997498 
	C605.464661,543.662964 607.542908,550.599976 615.500000,554.000000 
"/>
<path fill="none" opacity="1.000000" stroke="#000000" stroke-linecap="round" stroke-linejoin="round" stroke-width="13.000000"
	d="
M539.000000,388.500000 
	C543.253113,393.216217 543.108093,399.344177 543.908691,405.012909 
	C546.328064,422.143860 548.317993,439.335297 550.504517,456.499420 
	C552.536438,472.450256 553.899841,488.455383 555.113708,504.491394 
	C556.274536,519.825928 556.526794,535.149048 556.503174,550.500000 
	C556.473267,569.948730 554.026978,589.104553 549.473267,607.993530 
	C548.458130,612.204102 547.835999,616.419006 549.576965,620.466919 
	C550.572754,622.782104 549.855469,624.558960 548.999329,626.499695 
	C540.134705,646.596130 527.580566,664.046631 511.525146,679.026978 
	C508.216675,682.113892 504.423035,683.689636 500.000000,684.000000 
"/>
<path fill="none" opacity="1.000000" stroke="#000000" stroke-linecap="round" stroke-linejoin="round" stroke-width="14.000000"
	d="
M868.000000,682.500000 
	C882.772034,690.300659 890.424133,703.189941 893.713623,719.007568 
	C897.124573,735.408691 892.986023,750.085388 881.927429,762.434998 
	C868.645996,777.267029 851.030640,784.909790 832.528870,791.086426 
	C817.191284,796.206909 801.415466,799.027893 785.486084,800.880371 
	C769.736450,802.711914 753.772156,802.915344 738.014954,801.790405 
	C710.595459,799.832947 683.734497,794.695129 658.487976,783.026062 
	C642.566467,775.666931 627.813965,766.767029 616.490906,753.007507 
	C614.036804,750.025269 612.318115,746.808228 611.146606,743.032043 
	C607.795959,732.231750 608.054077,721.376831 610.067261,710.512451 
	C611.668396,701.871582 616.285339,695.101318 623.979858,690.466614 
	C631.580322,685.888672 639.209045,681.592712 648.500000,682.000000 
"/>
<path fill="none" opacity="1.000000" stroke="#000000" stroke-linecap="round" stroke-linejoin="round" stroke-width="14.000000"
	d="
M142.500000,346.500000 
	C135.249237,351.010315 135.151031,359.200134 133.183228,366.052612 
	C127.338524,386.405762 122.322891,406.997284 117.003349,427.500854 
	C112.775627,443.796112 109.865196,460.336365 107.433502,476.990295 
	C105.421127,490.772369 103.701981,504.545074 104.010521,518.499756 
	C104.110054,523.001282 104.249443,527.505127 104.524971,531.998474 
	C104.771721,536.022278 106.680779,539.193604 110.000000,541.500000 
"/>
<path fill="none" opacity="1.000000" stroke="#000000" stroke-linecap="round" stroke-linejoin="round" stroke-width="14.000000"
	d="
M389.500000,403.000000 
	C390.864807,409.966980 392.454468,416.896698 392.995056,424.000366 
	C393.032898,424.497498 393.105255,425.027100 392.984528,425.496002 
	C390.367889,435.658112 395.033783,445.401428 394.652588,455.505768 
	C394.282623,465.312561 395.298798,475.164459 395.463104,485.000610 
	C395.630035,494.997833 394.781433,505.063232 395.654724,514.986389 
	C397.298737,533.667236 396.819244,552.362732 396.278595,570.993591 
	C395.601135,594.338501 395.199982,617.710571 392.684601,641.019897 
	C390.038849,665.537598 386.179596,689.675232 377.995605,712.998474 
	C374.606659,722.656555 370.334961,731.860962 364.005035,740.003906 
	C359.103516,746.309326 358.752472,753.508423 360.000000,761.000000 
"/>
<path fill="none" opacity="1.000000" stroke="#000000" stroke-linecap="round" stroke-linejoin="round" stroke-width="14.000000"
	d="
M412.500000,400.500000 
	C414.000000,408.166656 414.862701,416.033203 417.186127,423.441620 
	C419.342682,430.318176 418.858887,437.110626 419.013824,443.999695 
	C419.298767,456.667419 419.870758,469.331879 419.961761,482.000275 
	C420.234711,519.999512 420.354065,557.999939 420.490906,596.000061 
	C420.555206,613.858459 419.835327,631.721313 418.327820,649.485413 
	C416.754425,668.026184 414.668304,686.601807 408.992157,704.497498 
	C405.515411,715.458984 401.682861,726.328247 394.428986,735.443481 
	C390.022003,740.981323 390.397095,747.220703 390.645935,753.494202 
	C390.688690,754.572144 390.733826,755.847534 391.000000,757.000000 
"/>
<path fill="none" opacity="1.000000" stroke="#000000" stroke-linecap="round" stroke-linejoin="round" stroke-width="14.000000"
	d="
M571.000000,362.000000 
	C577.635376,367.079193 577.623413,374.862335 578.945679,382.010040 
	C580.510254,390.467255 581.887817,398.972748 582.939270,407.507477 
	C584.043884,416.474060 584.410889,425.533081 585.569336,434.491028 
	C586.817200,444.139984 587.102051,453.861023 588.286621,463.526154 
	C589.312988,471.900360 588.923584,480.529938 588.325745,488.987671 
	C588.015198,493.380646 585.507935,497.424774 582.000000,500.500000 
"/>
<path fill="none" opacity="1.000000" stroke="#000000" stroke-linecap="round" stroke-linejoin="round" stroke-width="13.000000"
	d="
M655.000000,393.000000 
	C651.593689,395.033661 649.255432,397.978973 647.481812,401.490814 
	C644.434937,407.523743 643.230652,413.466583 644.190674,420.541962 
	C645.269165,428.490601 642.461060,436.541901 641.006592,444.501221 
	C638.766174,456.762207 636.557556,469.028778 632.998962,480.999695 
	C630.803040,488.386841 627.230774,495.104431 622.931091,501.741547 
	C627.690735,509.488800 625.415283,517.797424 623.945862,525.990295 
	C622.890686,531.873474 621.325806,537.664978 620.014160,543.503174 
	C619.907227,543.979187 620.185425,544.603760 619.972351,544.984558 
	C616.354797,551.450745 615.842224,558.236694 616.883911,565.516602 
	C617.839478,572.193726 618.779846,578.856689 619.912292,585.514893 
	C623.802368,608.386658 632.397217,629.785339 640.023621,651.491699 
	C642.033936,657.213318 644.196777,662.892212 646.598877,668.457336 
	C647.177734,669.798706 647.994080,670.964783 648.007629,672.499939 
	C648.081360,680.828613 651.695129,688.420654 653.341248,696.429871 
	C655.625793,707.545898 663.149536,715.653503 673.450989,721.092834 
	C678.596985,723.809937 683.492126,726.914124 689.500244,726.933960 
	C691.478577,726.940491 692.719116,728.213623 693.927795,729.098633 
	C699.509827,733.186096 706.085083,734.356628 712.515808,735.935669 
	C714.244873,736.360229 716.563904,736.677002 717.927734,735.876831 
	C722.559448,733.159180 725.970703,735.819092 730.062622,737.330505 
	C736.220947,739.605225 742.803040,741.202026 749.484924,739.921448 
	C753.210205,739.207520 756.385681,741.586609 760.006958,741.046509 
	C761.800354,740.779053 764.005859,741.646667 765.443604,740.892517 
	C773.337891,736.751587 782.865356,740.541199 790.525879,735.539612 
	C790.993286,735.234375 791.858032,735.382690 792.496399,735.517212 
	C807.431946,738.665100 819.505737,732.638550 830.439148,723.427734 
	C832.902832,721.352173 835.280945,720.101807 838.471924,719.376465 
	C849.736755,716.815735 856.079041,708.631104 859.882751,698.456177 
	C861.971802,692.868042 864.468323,687.624390 867.069031,682.289917 
	C873.142517,669.832275 880.607361,658.224976 887.032227,646.016968 
	C894.378967,632.057434 901.083008,617.852905 906.624268,603.046509 
	C910.417297,592.911377 911.838806,582.243896 914.969421,571.990662 
	C915.202148,571.228394 915.310425,570.157532 914.953125,569.526550 
	C910.175537,561.089111 913.407532,551.798401 912.137695,542.980164 
	C911.385315,537.755188 911.826721,532.322693 912.151855,527.009277 
	C912.214050,525.993469 911.916992,525.760254 911.499573,525.250366 
	C903.462524,515.432434 902.239441,503.300507 899.987000,491.502472 
	C897.375854,477.825195 894.515015,464.193848 892.057373,450.489716 
	C890.608521,442.410156 888.404297,434.417480 889.401062,425.988312 
	C889.933838,421.482513 892.153015,417.869873 894.000000,414.000000 
"/>
<path fill="none" opacity="1.000000" stroke="#000000" stroke-linecap="round" stroke-linejoin="round" stroke-width="14.000000"
	d="
M860.000000,417.000000 
	C863.188416,421.239136 867.176392,425.467438 866.828430,430.989197 
	C866.374084,438.197723 870.483643,444.135040 871.088806,450.992157 
	C871.680420,457.694855 873.218323,464.309265 873.956726,471.004761 
	C875.756287,487.323425 877.305481,503.669556 879.009949,519.998962 
	C880.123962,530.671143 882.187195,541.332947 882.191772,552.000122 
	C882.194702,558.809631 883.169739,564.789734 886.556580,570.466248 
	C887.206299,571.555237 886.978088,572.516113 886.964478,573.499512 
	C886.863281,580.833740 887.180847,588.223999 886.371643,595.485718 
	C885.328369,604.848083 879.981140,612.056885 872.405151,617.364685 
	C870.675354,618.576599 869.075256,619.642639 868.551941,621.514526 
	C864.739441,635.151123 858.037476,647.589294 852.438599,660.473328 
	C846.376099,674.424316 839.612549,688.071716 833.606201,702.045654 
	C831.121460,707.826416 832.238525,714.044312 834.000000,720.000000 
"/>
<path fill="none" opacity="1.000000" stroke="#000000" stroke-linecap="round" stroke-linejoin="round" stroke-width="13.000000"
	d="
M316.500000,402.000000 
	C316.505524,408.388428 314.065765,414.314209 312.996948,420.499481 
	C312.852295,421.336609 312.303375,422.301941 312.555664,422.979279 
	C315.360352,430.509979 310.385376,437.264923 310.510895,444.499817 
	C310.636597,451.745667 309.030731,458.827454 308.549225,466.003296 
	C307.148621,486.877625 304.490295,507.631866 302.810272,528.484741 
	C301.387146,546.149292 300.093292,563.830994 299.196594,581.509949 
	C298.446014,596.306885 297.584595,611.122742 297.832581,626.002808 
	C298.178558,646.764954 298.799438,667.472168 302.058319,687.990723 
	C304.938660,706.126038 309.391724,723.776550 320.479065,739.015198 
	C325.101746,745.368652 325.100555,752.622131 324.000000,760.000000 
"/>
<path fill="none" opacity="1.000000" stroke="#000000" stroke-linecap="round" stroke-linejoin="round" stroke-width="16.000000"
	d="
M885.500000,367.500000 
	C880.440125,374.394379 882.182495,382.332520 881.970032,389.999176 
	C881.731628,398.602051 886.501709,404.838959 891.520203,410.983490 
	C892.762939,412.505035 894.352722,413.147308 896.446899,413.700897 
	C901.659546,415.078766 904.158325,419.715210 905.421997,424.520508 
	C909.790955,441.133942 913.714905,457.864136 918.038391,474.490021 
	C921.345215,487.206909 924.847534,499.878693 928.593018,512.472351 
	C929.715759,516.247192 930.613586,519.701416 929.081116,523.532471 
	C928.701233,524.481995 928.282349,525.601562 928.916443,527.036926 
	C933.672424,537.803589 931.515076,548.042542 927.227783,558.592590 
	C924.780212,564.615356 921.847168,568.909058 915.500000,570.500000 
"/>
<path fill="none" opacity="1.000000" stroke="#000000" stroke-linecap="round" stroke-linejoin="round" stroke-width="14.000000"
	d="
M680.000000,444.500000 
	C674.252747,454.840027 676.256409,466.017029 676.541016,476.998932 
	C676.558533,477.673767 677.041748,478.443970 677.519104,478.983093 
	C683.079712,485.262726 680.848694,492.443451 680.017700,499.502075 
	C678.782593,509.994019 677.570740,520.490417 676.523376,531.002319 
	C675.096252,545.326294 673.833313,559.666687 672.500000,574.000000 
	C667.079834,582.575317 670.440979,591.976807 670.095764,601.003662 
	C669.905396,605.980225 667.373779,610.011963 666.000000,614.500000 
"/>
<path fill="none" opacity="1.000000" stroke="#000000" stroke-linecap="round" stroke-linejoin="round" stroke-width="14.000000"
	d="
M673.500000,654.000000 
	C678.166687,666.833313 682.822144,679.670776 687.507385,692.497314 
	C688.792297,696.014954 690.174927,699.496887 691.498291,703.000671 
	C694.544373,711.065491 694.801697,719.075745 691.000000,727.000000 
"/>
<path fill="none" opacity="1.000000" stroke="#000000" stroke-linecap="round" stroke-linejoin="round" stroke-width="12.000000"
	d="
M847.250000,479.000000 
	C847.869202,495.440216 850.800781,511.648590 852.173218,528.006470 
	C853.144470,539.583801 856.763367,550.598816 858.590332,561.985474 
	C859.280212,566.285217 861.411804,570.173340 865.000000,573.000000 
"/>
<path fill="none" opacity="1.000000" stroke="#000000" stroke-linecap="round" stroke-linejoin="round" stroke-width="14.000000"
	d="
M391.000000,432.500000 
	C386.833344,432.833313 382.672150,433.282715 378.499054,433.479797 
	C361.131287,434.300079 343.787323,434.084839 326.500305,431.997528 
	C322.498260,431.514313 318.500000,431.000000 314.500000,430.500000 
"/>
<path fill="none" opacity="1.000000" stroke="#000000" stroke-linecap="round" stroke-linejoin="round" stroke-width="14.000000"
	d="
M671.000000,409.500000 
	C666.372864,413.880371 663.649719,419.275909 662.515747,425.502869 
	C662.398254,426.148132 662.366943,426.865692 662.519958,427.495148 
	C664.878723,437.198334 659.503540,445.999146 659.268127,455.494263 
	C659.077332,463.189240 656.974548,470.861237 655.467407,478.493561 
	C653.117004,490.396179 651.221069,502.314575 650.927368,514.498230 
	C650.645203,526.205750 648.253662,537.754272 647.736084,549.488342 
	C647.612122,552.298096 647.702942,555.297119 647.783020,557.991577 
	C647.988831,564.915161 645.582947,571.047852 644.110535,577.525146 
	C640.417725,593.770996 648.001892,610.332581 662.500000,619.000000 
"/>
<path fill="none" opacity="1.000000" stroke="#000000" stroke-linecap="round" stroke-linejoin="round" stroke-width="15.000000"
	d="
M882.000000,562.000000 
	C876.237976,564.627563 871.716553,568.940918 866.974487,572.969971 
	C865.960449,573.831482 865.465515,574.659729 865.476624,576.000183 
	C865.547241,584.530701 863.665771,592.913818 863.849976,601.503235 
	C863.990845,608.076111 865.791382,613.612854 870.000000,618.500000 
"/>
<path fill="none" opacity="1.000000" stroke="#000000" stroke-linecap="round" stroke-linejoin="round" stroke-width="15.000000"
	d="
M470.500000,387.000000 
	C466.280182,385.741425 462.470276,387.371094 458.482452,388.434174 
	C447.265900,391.424194 436.073090,394.519226 424.514038,396.102448 
	C420.758026,396.616882 416.885284,397.427094 413.485382,399.475708 
	C412.922577,399.814789 412.083130,400.121582 411.512695,399.956238 
	C404.386993,397.891541 397.634460,399.449707 391.028778,402.072510 
	C390.312500,402.356873 389.673523,402.530212 389.001434,402.480713 
	C375.843353,401.510956 362.665314,402.041901 349.500153,402.069275 
	C340.616119,402.087769 331.719696,399.975983 323.032257,400.828613 
	C315.187073,401.598663 308.408264,398.401398 301.029785,397.690796 
	C285.486481,396.193817 270.698700,390.472015 255.455750,387.206512 
	C246.423325,385.271545 239.083740,379.213928 229.990463,378.076263 
	C224.475601,377.386230 221.143127,373.016083 216.480316,371.046600 
	C206.972824,367.030823 199.644363,359.557068 190.500000,355.000000 
	C188.889450,350.133850 185.189209,346.629730 181.886307,343.106598 
	C176.067551,336.899841 175.137802,329.174652 173.442368,321.512756 
	C171.776459,313.984131 174.793701,307.446411 177.644745,301.064667 
	C180.069122,295.637939 181.926147,290.441132 180.500000,284.500000 
"/>
<path fill="none" opacity="1.000000" stroke="#000000" stroke-linecap="round" stroke-linejoin="round" stroke-width="14.000000"
	d="
M475.000000,418.500000 
	C464.656403,420.000580 455.293884,424.999420 445.010742,426.810944 
	C436.790894,428.259003 428.666656,430.250000 420.500000,432.000000 
"/>
<path fill="none" opacity="1.000000" stroke="#000000" stroke-linecap="round" stroke-linejoin="round" stroke-width="14.000000"
	d="
M246.000000,385.500000 
	C244.188095,391.179230 240.501083,396.087463 239.236267,401.997070 
	C238.911041,403.516632 238.089615,404.995850 238.070496,406.500885 
	C238.034592,409.328674 237.353134,412.289856 238.543808,414.980621 
	C239.987137,418.242401 243.433670,417.143097 245.989380,418.030579 
	C255.772400,421.427887 265.867279,423.486023 275.963745,425.667786 
	C279.841187,426.505676 283.757050,425.807007 287.500000,427.000000 
"/>
<path fill="none" opacity="1.000000" stroke="#000000" stroke-linecap="round" stroke-linejoin="round" stroke-width="14.000000"
	d="
M664.500000,436.000000 
	C666.486450,435.938629 668.240234,436.570831 670.017029,437.466217 
	C676.410889,440.688263 682.515747,444.582123 689.509399,446.465149 
	C692.774780,447.344360 693.610657,449.582672 693.487854,452.499481 
	C693.132935,460.928314 691.662354,469.106140 688.580261,477.031219 
	C687.212402,480.548401 684.736389,482.796234 682.000000,485.000000 
"/>
<path fill="none" opacity="1.000000" stroke="#000000" stroke-linecap="round" stroke-linejoin="round" stroke-width="14.000000"
	d="
M526.500000,358.000000 
	C535.204407,364.481140 539.879944,372.983124 539.483521,383.999420 
	C539.438354,385.253784 539.166626,386.500000 538.999512,387.749268 
	C530.752136,390.176788 524.984680,396.757660 517.536133,400.570557 
	C512.213135,403.295349 507.096252,406.346924 501.000000,407.000000 
"/>
<path fill="none" opacity="1.000000" stroke="#000000" stroke-linecap="round" stroke-linejoin="round" stroke-width="14.000000"
	d="
M190.250000,355.000000 
	C184.428101,358.864655 179.544830,363.611084 176.523026,370.010864 
	C175.267548,372.669830 174.756287,375.538544 175.003387,378.499725 
	C175.247971,381.430908 176.264450,383.128296 179.384781,384.725159 
	C186.093460,388.158356 192.050491,393.026245 198.539749,396.933990 
	C203.069000,399.661438 207.332733,403.193665 213.000000,403.500000 
"/>
<path fill="none" opacity="1.000000" stroke="#000000" stroke-linecap="round" stroke-linejoin="round" stroke-width="13.000000"
	d="
M882.500000,398.500000 
	C876.763489,399.294434 872.063110,402.086273 868.561951,406.548615 
	C865.884216,409.961456 862.593018,413.053040 859.612488,415.834747 
	C856.892578,418.373108 851.547180,419.064850 847.481995,420.961456 
	C841.395203,423.801147 834.516846,424.765594 828.965576,428.954376 
	C826.923767,430.494965 824.337158,428.889740 821.988770,429.453217 
	C817.924255,430.428406 813.577454,430.338898 809.981018,432.974060 
	C809.279846,433.487793 808.227234,434.104523 807.516357,433.932343 
	C800.275635,432.178436 793.184265,435.147247 786.000366,434.495972 
	C781.174377,434.058472 776.672913,435.028076 772.500000,437.500000 
"/>
<path fill="none" opacity="1.000000" stroke="#000000" stroke-linecap="round" stroke-linejoin="round" stroke-width="13.000000"
	d="
M723.000000,431.500000 
	C717.895203,427.908051 712.368042,425.459045 706.000427,425.536072 
	C704.379089,425.555664 703.171997,425.095551 701.980286,424.021912 
	C698.262329,420.672272 693.309021,419.697083 688.948547,417.607300 
	C683.098083,414.803467 677.196289,411.833405 671.763916,408.561737 
	C668.472961,406.579742 665.585876,402.255981 662.498779,399.001160 
	C662.174500,398.659271 661.877258,398.268158 661.493530,398.009583 
	C652.973755,392.268677 651.625427,382.821289 648.958679,374.012512 
	C647.876099,370.436584 646.333313,367.000000 644.999939,363.500000 
"/>
<path fill="none" opacity="1.000000" stroke="#000000" stroke-linecap="round" stroke-linejoin="round" stroke-width="15.000000"
	d="
M810.000000,457.500000 
	C802.500000,458.833313 794.982605,460.077850 787.508545,461.543549 
	C784.494995,462.134491 781.502869,461.885132 778.500000,462.000000 
"/>
<path fill="none" opacity="1.000000" stroke="#000000" stroke-linecap="round" stroke-linejoin="round" stroke-width="14.000000"
	d="
M542.000000,340.500000 
	C548.706299,344.781433 553.663330,350.534912 556.475220,358.009308 
	C557.588989,360.969910 559.599609,363.112244 562.000000,365.000000 
"/>
<path fill="none" opacity="1.000000" stroke="#000000" stroke-linecap="round" stroke-linejoin="round" stroke-width="13.000000"
	d="
M828.499939,430.000031 
	C830.166626,434.833344 831.476624,439.830261 833.597717,444.455170 
	C835.829163,449.320618 839.571655,453.094971 844.500000,455.500000 
"/>
<path fill="none" opacity="1.000000" stroke="#000000" stroke-linecap="round" stroke-linejoin="round" stroke-width="10.000000"
	d="
M536.500000,287.000000 
	C535.032837,295.969788 540.142639,302.587311 544.447144,309.532776 
	C545.143250,310.655975 545.887390,311.405762 546.980103,310.952118 
	C550.525696,309.480347 554.558777,310.325348 558.000000,308.500000 
"/>
<path fill="none" opacity="1.000000" stroke="#000000" stroke-linecap="round" stroke-linejoin="round" stroke-width="5.000000"
	d="
M652.500000,696.500000 
	C648.833313,696.500000 645.166687,696.500000 641.500000,696.500000 
"/>
</svg>