<svg version="1.1" id="Layer_1" xmlns="http://www.w3.org/2000/svg" xmlns:xlink="http://www.w3.org/1999/xlink" x="0px" y="0px"
	 width="100%" viewBox="0 0 1024 1024" enable-background="new 0 0 1024 1024" xml:space="preserve">
<path fill="#000000" opacity="1.000000" stroke="none" 
	d="
M572.731323,469.666687 
	C558.050781,495.270355 543.668945,520.620972 529.021912,545.817505 
	C519.606262,562.014771 512.830322,579.137207 511.702728,597.893250 
	C511.165375,606.831848 513.943115,615.651489 517.516174,623.968506 
	C523.318604,637.474792 531.728882,649.606018 538.218506,662.737732 
	C551.631592,689.879028 561.398743,718.082947 564.523438,748.521729 
	C568.265747,784.977234 558.756592,817.843384 538.822327,847.816650 
	C522.816650,871.882935 499.767548,887.338440 473.253937,898.215027 
	C452.812073,906.600952 431.690277,911.611694 409.668976,910.984009 
	C390.417633,910.435303 372.032623,904.841003 354.012299,898.198181 
	C318.451508,885.089233 287.832581,864.613403 262.827362,836.153992 
	C243.860199,814.566956 232.572510,789.280029 229.668396,760.566528 
	C224.338959,707.873291 244.497879,666.055481 284.901855,633.219116 
	C304.705963,617.124268 327.250916,605.629944 350.480164,595.344604 
	C370.284973,586.575500 389.941864,577.530029 407.240631,564.113159 
	C417.161346,556.418640 424.202332,546.341370 431.688477,536.554443 
	C447.931183,515.319824 460.889099,491.992584 474.685638,469.210968 
	C497.723358,431.169769 520.528687,392.987244 543.317932,354.796295 
	C563.627258,320.761169 583.764099,286.623169 604.028625,252.561234 
	C606.580200,248.272324 609.477661,244.190369 612.145264,239.968597 
	C612.905090,238.766037 614.119019,237.489914 612.725586,235.942291 
	C611.450684,234.526276 610.146912,235.168304 608.656433,235.728531 
	C600.748291,238.700974 593.188965,238.272125 586.823792,232.249802 
	C580.513733,226.279663 579.317383,218.792770 581.673645,210.646835 
	C584.079041,202.331177 588.949707,196.209641 597.273926,193.029724 
	C606.448181,189.525116 617.800415,193.585236 622.421997,202.371094 
	C623.859558,205.103989 626.532715,205.712082 628.960083,206.432083 
	C631.462708,207.174423 632.311584,204.596970 633.195190,202.960815 
	C637.081787,195.764053 641.490051,188.910934 646.128296,182.183838 
	C647.285522,180.505615 648.858276,178.755096 648.218445,176.411804 
	C646.482117,174.851105 644.886719,176.170502 643.434570,176.571808 
	C629.959412,180.295670 617.763123,171.787430 616.724976,157.828796 
	C615.653625,143.423630 628.712402,130.000641 643.147461,130.669434 
	C650.907043,131.028961 656.797791,135.701935 658.341187,143.105728 
	C658.937805,145.967911 660.901123,146.868729 663.167358,147.471085 
	C665.886108,148.193741 666.509399,145.809647 667.364075,144.107498 
	C677.416626,124.087486 691.417664,107.814110 711.499023,97.232407 
	C727.679016,88.706520 744.965515,84.016724 763.171143,83.824821 
	C775.965393,83.689964 789.057678,85.546280 800.961121,89.433289 
	C813.316650,93.467903 823.556458,102.521362 831.916870,113.124809 
	C843.221252,127.462242 848.724854,143.780685 848.202759,161.789886 
	C847.272278,193.886475 817.111206,220.698044 780.956177,209.761185 
	C771.618042,206.936386 766.126831,200.252151 763.918213,191.138870 
	C762.796021,186.508438 760.883423,183.848770 756.367615,181.948242 
	C744.877136,177.112350 745.031555,176.872955 737.816162,187.172501 
	C734.849670,191.406921 732.000000,195.692337 729.570984,200.265656 
	C728.150635,202.939957 728.189270,204.927689 731.280273,206.293976 
	C732.635193,206.892868 733.993591,207.669159 735.074097,208.664780 
	C737.289795,210.706421 738.960876,209.918930 740.483093,207.922943 
	C745.218506,201.714005 750.105835,200.319839 758.380920,202.874466 
	C764.028687,204.618027 768.219421,210.589798 768.339294,217.032059 
	C768.426270,221.703888 768.565308,226.386490 766.490173,230.755859 
	C765.311646,233.237366 766.012451,234.656418 768.560669,235.756332 
	C774.977234,238.525970 781.514160,241.130051 787.609558,244.509705 
	C807.542603,255.561859 818.556030,272.943054 821.343628,295.267609 
	C824.651489,321.759247 818.870178,346.660065 805.080811,369.347900 
	C794.479675,386.789978 777.985046,397.481506 759.455688,405.190460 
	C746.392212,410.625397 732.869751,413.424591 718.620483,412.365967 
	C685.106567,409.876160 658.434692,396.639679 643.202759,365.020416 
	C641.745178,361.994720 640.984375,358.387115 636.990662,355.755402 
	C615.533936,393.795288 594.225769,431.571808 572.731323,469.666687 
M474.421204,657.998718 
	C463.362335,628.422424 459.723450,598.020691 465.183563,566.738159 
	C463.026031,566.652527 462.616882,567.580383 462.131958,568.464539 
	C449.478882,591.533752 436.991241,614.695984 424.114105,637.639526 
	C408.961212,664.638000 395.376007,692.561890 377.304749,717.855347 
	C375.028900,721.040710 375.674927,723.117249 378.906952,725.112732 
	C384.573090,728.611206 390.259125,732.124023 395.613129,736.070007 
	C402.599091,741.218872 403.400726,747.153381 398.365387,754.228760 
	C396.235504,757.221497 393.953522,760.094971 392.602661,763.541443 
	C391.616974,766.056213 390.031128,766.485229 387.459076,765.905396 
	C382.288330,764.739746 378.940826,760.816956 374.804993,758.101013 
	C365.972626,752.300842 364.535156,752.588684 359.349060,761.561951 
	C358.432190,763.148315 357.515625,764.739502 356.697876,766.377869 
	C344.273041,791.271484 331.049500,815.733887 317.165619,839.843079 
	C311.897095,848.991821 311.952637,849.023193 321.723724,853.686035 
	C322.174652,853.901306 322.604767,854.160889 323.058502,854.369507 
	C348.800751,866.204529 375.334930,869.793030 402.575470,860.601440 
	C430.036774,851.335266 450.506134,832.907776 466.244446,809.061218 
	C487.275085,777.195862 493.880676,742.244080 487.963776,704.656860 
	C485.460358,688.753845 480.137360,673.745544 474.421204,657.998718 
M473.221252,831.674805 
	C442.652771,864.860596 407.276337,886.954834 358.187622,880.259888 
	C373.109955,886.479065 397.925934,891.693176 411.483765,891.669861 
	C425.913269,891.645020 439.801727,888.526367 453.630646,884.640076 
	C513.816040,867.726196 545.437378,812.398865 546.582947,760.343323 
	C547.096436,737.012573 540.998535,714.937073 532.524719,693.403015 
	C524.880310,673.976501 515.062134,655.626404 505.094849,637.348450 
	C497.811951,623.993042 492.423279,609.917847 493.194092,594.593567 
	C494.109833,576.387512 500.003448,559.206848 508.900787,543.462769 
	C531.107117,504.168060 553.797485,465.143616 576.600342,426.190277 
	C594.183472,396.153656 612.378052,366.475494 630.038879,336.483673 
	C654.970032,294.144958 679.491821,251.564636 704.526489,209.287674 
	C716.140198,189.675201 727.249023,169.619965 743.032410,152.850601 
	C753.655334,141.564087 765.915771,132.499542 780.645386,127.150696 
	C784.450989,125.768761 788.311401,124.813057 792.299438,126.572067 
	C797.069214,128.675873 796.361511,132.930313 796.300293,136.872284 
	C796.262512,139.303894 795.289673,140.988113 792.437439,141.035919 
	C779.774048,141.248077 770.979065,149.241196 761.931580,156.538513 
	C759.014404,158.891403 759.315674,161.516235 762.754517,163.737137 
	C769.357056,168.001282 771.072693,167.639542 775.052734,160.569977 
	C775.624023,159.555283 776.184021,158.521057 776.874512,157.588669 
	C785.388184,146.091980 800.699036,147.543793 806.342957,160.368195 
	C808.681091,165.681122 807.705750,173.292114 803.987610,176.747971 
	C800.124146,180.338959 795.615601,181.287170 790.586670,179.332764 
	C787.649292,178.191147 785.752319,176.169159 785.944824,172.983582 
	C786.128784,169.939087 788.306213,168.402328 791.154785,167.709122 
	C792.408264,167.404083 794.393372,168.204407 794.433838,165.774963 
	C788.924805,164.581924 783.596680,166.943085 781.594360,171.426636 
	C778.395447,178.589249 781.721619,188.005310 788.735962,191.644165 
	C796.668152,195.759171 807.509399,193.999329 815.259338,187.338638 
	C831.712891,173.197632 833.919983,143.373734 819.335083,125.452530 
	C810.122498,114.132469 798.551208,106.445168 783.069458,108.487503 
	C772.165955,109.925888 762.452515,115.020058 753.338562,120.909187 
	C736.044922,132.083664 723.087524,147.505966 712.713135,165.011505 
	C677.727234,224.046021 642.929688,283.192505 608.193176,342.374237 
	C588.638367,375.690338 569.342529,409.166016 549.724731,442.436615 
	C531.376343,473.554413 511.888336,504.017395 493.625732,535.208618 
	C488.495270,543.971008 483.084778,552.593994 480.999054,562.775635 
	C479.630646,569.455811 478.765076,576.170715 478.047485,582.959778 
	C476.132202,601.080078 477.261963,618.838440 483.494629,636.012451 
	C490.244385,654.611206 497.912811,672.851257 503.083984,692.037598 
	C509.471252,715.735901 511.162781,739.410034 505.601013,763.464722 
	C499.849060,788.342285 489.226532,810.885986 473.221252,831.674805 
M285.220367,824.450684 
	C292.092957,812.277100 298.938782,800.088379 305.844635,787.933777 
	C315.136475,771.579590 324.469635,755.248962 333.797180,738.915100 
	C335.599640,735.758789 335.164612,733.452759 331.849335,731.429626 
	C328.025360,729.096008 324.448547,726.340759 320.868988,723.630432 
	C319.134460,722.317017 317.636627,720.666931 317.655426,718.248901 
	C317.706757,711.643005 320.868683,706.298706 325.465057,702.101746 
	C329.780518,698.161316 334.718323,700.197693 339.507751,702.132629 
	C343.305054,703.666626 346.488495,708.146790 350.677399,706.764038 
	C354.723419,705.428467 355.384460,700.200562 357.605713,696.754089 
	C366.173309,683.460510 374.691742,670.125366 382.825714,656.564209 
	C403.972473,621.307739 424.294769,585.550598 447.315735,551.441406 
	C451.373688,545.428894 455.917145,539.654846 458.190125,532.550293 
	C454.082947,537.140137 449.981110,541.755127 446.750122,546.915405 
	C437.407776,561.836060 425.302948,573.852356 411.017365,584.104797 
	C394.291443,596.108643 375.100708,602.895813 356.721466,611.445007 
	C326.418091,625.540710 297.123596,640.591431 275.915314,668.224609 
	C260.879486,687.815369 251.694717,709.203247 249.613892,733.340149 
	C247.885910,753.384033 250.960114,773.255432 258.610809,792.015625 
	C263.605469,804.262878 271.079803,815.146790 280.053131,824.920105 
	C281.519531,826.517090 283.211273,828.540588 285.220367,824.450684 
M728.298035,380.675812 
	C736.232544,379.410248 743.835022,376.997192 751.177795,373.802887 
	C775.981140,363.012726 793.597290,345.882538 799.119385,318.452545 
	C803.820984,295.097961 798.649780,274.904968 779.501099,259.365753 
	C774.897644,255.630035 769.158264,253.963120 764.384460,250.660751 
	C760.669922,248.091171 757.295532,248.221695 753.786255,250.516891 
	C750.782654,252.481308 747.436523,253.390030 744.002563,254.045807 
	C736.487671,255.480850 725.221252,250.938004 723.623535,244.699539 
	C722.082031,238.680908 717.511597,237.409851 713.223633,235.161316 
	C710.391052,233.675964 708.430054,234.659744 707.126892,237.352585 
	C704.734985,242.294846 702.385986,247.257828 700.001282,252.203598 
	C699.351013,253.552307 699.555298,254.696274 700.439087,255.909821 
	C703.559998,260.195038 707.055664,261.342010 712.095947,259.614136 
	C719.963867,256.916901 731.016724,258.488861 734.421936,263.730499 
	C739.020142,270.808380 741.632263,278.601318 739.588379,287.397888 
	C737.036804,298.380096 729.412781,303.814545 719.538574,307.699097 
	C708.771545,311.934906 700.983032,309.514191 695.911072,299.172821 
	C694.964294,297.242432 693.930176,295.182343 693.713928,293.101318 
	C693.232544,288.469666 690.601624,285.842682 686.888855,283.456573 
	C683.656982,281.379578 681.985168,281.907074 680.183899,285.096649 
	C674.369934,295.391754 668.274475,305.528320 662.497498,315.843597 
	C660.402710,319.584229 658.262268,323.306396 657.201965,327.625336 
	C655.113098,336.134216 657.239014,344.283630 659.554565,352.135193 
	C663.436218,365.297028 671.561584,375.029572 685.410706,378.910217 
	C699.277405,382.795837 713.305542,382.809631 728.298035,380.675812 
M380.393707,699.936707 
	C384.256317,693.523743 388.411652,687.267029 391.933685,680.672119 
	C413.648163,640.011719 435.460724,599.407837 458.803375,559.648254 
	C465.398712,548.414429 470.656219,536.290955 480.639038,527.306580 
	C482.177948,525.921570 482.481873,523.590149 480.688904,521.939392 
	C478.770935,520.173584 476.744751,520.342346 475.174194,522.586548 
	C474.225677,523.942017 473.267059,525.313232 472.519165,526.782288 
	C469.875580,531.974976 467.319885,537.238525 463.744720,541.857910 
	C453.535736,555.048706 445.019653,569.374817 436.280945,583.504395 
	C411.777771,623.123413 387.760895,663.043274 363.568756,702.854553 
	C362.273621,704.985901 360.991272,707.145203 359.947876,709.404663 
	C358.293671,712.986816 359.907776,715.279785 363.029144,717.218750 
	C366.189667,719.182068 367.886627,718.183716 369.995697,715.458252 
	C373.678772,710.698792 376.737640,705.564026 380.393707,699.936707 
M670.790894,174.231064 
	C669.550537,176.396469 668.311646,178.562714 667.069153,180.726913 
	C666.474548,181.762573 665.955017,182.895340 666.368103,184.051865 
	C668.287964,189.426819 673.614990,189.943451 677.896851,191.771866 
	C681.295349,193.223083 682.112488,189.775757 683.246887,187.858337 
	C690.872314,174.969757 697.737488,161.591064 705.972229,149.112427 
	C719.931030,127.959900 737.120422,110.139313 761.582642,100.909416 
	C762.289368,100.642731 763.229309,100.484673 763.252686,99.396629 
	C759.807129,98.212349 756.365479,97.753769 752.505493,98.270912 
	C728.804138,101.446289 709.358887,111.628044 695.348633,131.700607 
	C686.057983,145.011398 679.037781,159.527313 670.790894,174.231064 
M615.407837,300.945129 
	C624.310486,286.286377 633.201721,271.620636 642.128174,256.976379 
	C643.471313,254.772903 644.874329,252.716385 642.538818,250.271057 
	C635.161987,242.547272 630.400818,242.981018 624.910217,251.948288 
	C624.301575,252.942184 623.761658,253.977890 623.166870,254.980499 
	C612.548279,272.879517 602.007812,290.825623 591.273438,308.654938 
	C585.022766,319.037109 584.952332,318.813721 595.770142,324.261627 
	C599.453613,326.116669 601.480835,325.385376 603.369629,321.940857 
	C607.130981,315.081543 611.123352,308.348907 615.407837,300.945129 
M518.406982,455.891815 
	C523.641541,458.101532 524.308655,453.096252 525.765381,450.618683 
	C534.440430,435.864868 543.634583,421.443420 552.835205,407.020538 
	C558.906006,397.504028 558.739807,397.518127 548.669006,391.982269 
	C544.725281,389.814453 542.590515,390.391205 540.308533,394.315063 
	C531.459717,409.530548 522.457764,424.661591 513.240906,439.656982 
	C506.661957,450.360596 506.468140,450.241486 518.406982,455.891815 
M560.910767,359.318146 
	C559.908508,361.046906 558.902649,362.773590 557.904541,364.504761 
	C550.777039,376.866730 549.391479,373.158813 562.548584,381.125488 
	C565.461670,382.889374 567.274231,382.288666 568.963928,379.297852 
	C574.941040,368.718201 581.211731,358.304382 587.182556,347.721252 
	C593.073486,337.279602 592.642761,336.540375 581.207397,332.182434 
	C578.259705,331.059113 576.550171,331.689789 575.070618,334.346710 
	C570.534180,342.492920 565.884888,350.576324 560.910767,359.318146 
M652.457092,203.905289 
	C647.742676,212.323029 643.130432,220.800385 638.270203,229.133102 
	C635.879089,233.232635 637.080811,235.971146 640.711304,238.311478 
	C646.949646,242.332886 649.971741,242.546936 652.807007,238.559784 
	C660.340210,227.966125 666.736694,216.657562 673.221069,205.409836 
	C674.092102,203.898941 674.611450,202.572098 672.971191,200.990509 
	C669.237854,197.390717 664.606750,194.821716 659.826721,194.387177 
	C656.201843,194.057648 655.852539,199.479797 653.611938,202.002930 
	C653.286072,202.369843 653.089722,202.851746 652.457092,203.905289 
M493.189423,505.706879 
	C494.608215,503.464996 496.056244,501.240997 497.440399,498.977936 
	C501.942230,491.617493 506.522919,484.301971 510.847321,476.838226 
	C512.185242,474.529053 514.025208,471.612488 510.163605,469.651581 
	C507.658325,468.379395 505.005219,467.401794 502.467163,466.189911 
	C499.678436,464.858368 497.695465,465.686127 496.216187,468.238037 
	C489.559998,479.720673 482.887756,491.194031 476.250366,502.687531 
	C475.406860,504.148193 474.738831,505.643829 476.278839,507.206238 
	C481.272644,512.272766 488.971100,511.867432 493.189423,505.706879 
M297.838593,818.258606 
	C295.820831,822.265503 293.801666,826.271790 291.785889,830.279663 
	C290.909607,832.021973 289.184601,834.160156 291.561798,835.520325 
	C294.019135,836.926392 296.340881,835.660461 297.789001,833.180298 
	C299.800201,829.735657 301.756042,826.257446 303.826202,822.848694 
	C318.770599,798.240112 330.527496,771.910278 344.827148,746.953979 
	C345.322113,746.090210 345.756287,745.187622 346.162231,744.277893 
	C346.856201,742.722412 346.701935,741.294434 345.140686,740.384033 
	C343.352631,739.341248 342.386261,740.546326 341.562378,741.917725 
	C338.909271,746.334045 336.173767,750.703491 333.623352,755.178467 
	C321.775879,775.965881 309.980011,796.782776 297.838593,818.258606 
M340.106262,781.636353 
	C345.199860,771.356323 350.376312,761.124207 356.677246,751.504761 
	C357.721863,749.910034 359.409027,747.961060 356.473114,746.593811 
	C354.049713,745.465393 352.786377,746.982300 352.007782,749.119751 
	C349.889984,754.933594 346.458160,760.076782 343.651886,765.540100 
	C330.965240,790.238464 317.409790,814.457825 303.752136,838.624146 
	C302.995178,839.963562 300.411652,841.482849 303.168610,843.090271 
	C305.343811,844.358398 306.367950,842.106995 307.520752,840.823669 
	C308.173615,840.096863 308.574677,839.136719 309.054474,838.262695 
	C319.293915,819.609070 329.528473,800.952820 340.106262,781.636353 
M374.137878,744.186462 
	C376.335083,744.779968 378.653748,746.083862 379.994385,742.808044 
	C381.257874,739.720825 378.641754,739.174500 376.974304,738.022949 
	C370.086182,733.266235 362.418701,729.948120 354.952271,726.277161 
	C353.107788,725.370361 350.642700,723.146545 348.950928,726.397095 
	C347.400452,729.376099 350.450165,729.923279 352.059662,731.065674 
	C358.866028,735.896423 366.200928,739.852783 374.137878,744.186462 
M610.319519,216.619949 
	C608.583130,218.123199 608.125488,219.553284 610.634583,220.701462 
	C612.880005,221.728989 615.175903,222.647278 617.411743,223.694504 
	C621.772888,225.737228 623.540527,222.747162 624.849609,219.614853 
	C626.277344,216.198486 623.899841,214.782181 621.203491,213.270538 
	C616.558655,210.666595 613.514343,212.504593 610.319519,216.619949 
M780.338867,370.895630 
	C770.159851,378.544678 758.717651,384.096222 747.588379,390.167358 
	C770.654846,384.431244 790.115479,367.391388 793.953491,358.093903 
	C789.535583,362.273712 785.215698,366.360809 780.338867,370.895630 
M656.353333,162.915756 
	C659.599365,157.291794 658.883423,154.170593 653.771912,151.661270 
	C649.901794,149.761368 647.516296,151.501633 644.537903,158.586426 
	C647.849731,161.085510 650.867004,164.256531 656.353333,162.915756 
M719.788818,278.564362 
	C719.266846,276.547089 717.875000,275.183319 716.407898,273.808685 
	C713.482605,271.067719 711.294800,271.095917 709.911987,275.226562 
	C709.651428,276.004852 709.216858,276.723145 708.919983,277.491272 
	C708.302307,279.089661 706.483398,280.923126 708.505859,282.356110 
	C711.204163,284.267975 714.378967,285.702789 717.791504,284.431793 
	C720.042419,283.593384 721.068237,281.738251 719.788818,278.564362 
M749.770752,228.459442 
	C750.618225,227.280151 750.715576,226.020233 750.196838,224.682877 
	C748.864319,221.247772 746.550354,219.105591 742.681519,219.431488 
	C740.854370,219.585403 737.669128,225.817078 738.602478,227.715897 
	C740.172791,230.910492 743.322205,231.024673 746.342346,230.679352 
	C747.379150,230.560806 748.319946,229.602402 749.770752,228.459442 
M697.304443,263.470734 
	C694.486267,261.639069 693.065857,263.318787 692.019348,265.656860 
	C691.267761,267.336182 689.108215,269.200989 691.237976,270.903442 
	C693.461731,272.681030 696.106750,275.010681 699.130371,273.931885 
	C701.343323,273.142334 700.862366,270.298309 700.807983,268.180237 
	C700.756042,266.155182 699.451965,264.910522 697.304443,263.470734 
M728.382690,217.610458 
	C727.744446,214.521973 725.620117,213.309326 722.698975,212.912766 
	C721.068604,212.691422 720.128601,213.347702 719.595093,214.741623 
	C718.548706,217.475174 718.441223,219.630234 721.750427,221.266190 
	C725.571655,223.155212 727.326782,221.882660 728.382690,217.610458 
z"/>
</svg>